<svg width="73" height="20" viewBox="0 0 73 20" fill="none" xmlns="http://www.w3.org/2000/svg">
<path d="M27.3569 12.8753H25.1796C24.6823 12.8753 24.2959 12.7375 24.0204 12.462C23.7516 12.1865 23.6172 11.8035 23.6172 11.3129V9.2969C23.6172 8.79962 23.7516 8.41658 24.0204 8.14778C24.2959 7.87226 24.6823 7.7345 25.1796 7.7345H26.0061C26.5034 7.7345 26.8898 7.87226 27.1653 8.14778C27.4409 8.41658 27.5786 8.79962 27.5786 9.2969V10.5771C27.5786 10.698 27.5181 10.7585 27.3972 10.7585H24.6957C24.6218 10.7585 24.5849 10.7921 24.5849 10.8593V11.2927C24.5849 11.7833 24.8301 12.0286 25.3207 12.0286H27.3569C27.4778 12.0286 27.5383 12.0891 27.5383 12.21V12.714C27.5383 12.8215 27.4778 12.8753 27.3569 12.8753ZM24.6957 10.0731H26.5001C26.5673 10.0731 26.6009 10.0395 26.6009 9.97226V9.32714C26.6009 9.07178 26.5437 8.88698 26.4295 8.77274C26.3153 8.65178 26.1305 8.5913 25.8751 8.5913H25.3207C25.0653 8.5913 24.8805 8.65178 24.7663 8.77274C24.6521 8.88698 24.5949 9.07178 24.5949 9.32714V9.97226C24.5949 10.0395 24.6285 10.0731 24.6957 10.0731Z" fill="white"/>
<path d="M29.4955 12.8753H28.8604C28.7462 12.8753 28.6891 12.8182 28.6891 12.7039V7.90586C28.6891 7.79162 28.7462 7.7345 28.8604 7.7345H29.4955C29.6097 7.7345 29.6668 7.79162 29.6668 7.90586V8.26874H29.7072C29.8684 7.91258 30.2078 7.7345 30.7252 7.7345H31.1688C31.6593 7.7345 32.0356 7.8689 32.2977 8.1377C32.5598 8.4065 32.6908 8.7929 32.6908 9.2969V12.7039C32.6908 12.8182 32.6304 12.8753 32.5094 12.8753H31.8744C31.7601 12.8753 31.703 12.8182 31.703 12.7039V9.33722C31.703 8.83994 31.4577 8.5913 30.9672 8.5913H30.4934C29.9424 8.5913 29.6668 8.8769 29.6668 9.4481V12.7039C29.6668 12.8182 29.6097 12.8753 29.4955 12.8753Z" fill="white"/>
<path d="M37.5353 12.8753H35.358C34.8607 12.8753 34.4743 12.7375 34.1988 12.462C33.93 12.1865 33.7956 11.8035 33.7956 11.3129V9.2969C33.7956 8.79962 33.93 8.41658 34.1988 8.14778C34.4743 7.87226 34.8607 7.7345 35.358 7.7345H36.1846C36.6819 7.7345 37.0683 7.87226 37.3438 8.14778C37.6193 8.41658 37.7571 8.79962 37.7571 9.2969V10.5771C37.7571 10.698 37.6966 10.7585 37.5756 10.7585H34.8742C34.8003 10.7585 34.7633 10.7921 34.7633 10.8593V11.2927C34.7633 11.7833 35.0086 12.0286 35.4991 12.0286H37.5353C37.6563 12.0286 37.7167 12.0891 37.7167 12.21V12.714C37.7167 12.8215 37.6563 12.8753 37.5353 12.8753ZM34.8742 10.0731H36.6785C36.7457 10.0731 36.7793 10.0395 36.7793 9.97226V9.32714C36.7793 9.07178 36.7222 8.88698 36.6079 8.77274C36.4937 8.65178 36.3089 8.5913 36.0535 8.5913H35.4991C35.2438 8.5913 35.059 8.65178 34.9447 8.77274C34.8305 8.88698 34.7734 9.07178 34.7734 9.32714V9.97226C34.7734 10.0395 34.807 10.0731 34.8742 10.0731Z" fill="white"/>
<path d="M39.6739 12.8753H39.0389C38.9246 12.8753 38.8675 12.8182 38.8675 12.7039V7.90586C38.8675 7.79162 38.9246 7.7345 39.0389 7.7345H39.6739C39.7881 7.7345 39.8453 7.79162 39.8453 7.90586V8.2889H39.8856C39.9528 8.1209 40.0805 7.9865 40.2686 7.8857C40.4635 7.7849 40.6785 7.7345 40.9137 7.7345H41.2867C41.4009 7.7345 41.4581 7.79162 41.4581 7.90586V8.43002C41.4581 8.5577 41.4009 8.61146 41.2867 8.5913H40.6819C40.1241 8.5913 39.8453 8.89706 39.8453 9.50858V12.7039C39.8453 12.8182 39.7881 12.8753 39.6739 12.8753Z" fill="white"/>
<path d="M44.1188 12.6233H43.6652C43.1813 12.6233 42.8084 12.4889 42.5463 12.2201C42.2909 11.9446 42.1633 11.5582 42.1633 11.0609V9.2969C42.1633 8.79962 42.301 8.41658 42.5765 8.14778C42.8521 7.87226 43.2351 7.7345 43.7257 7.7345H45.9836C46.1045 7.7345 46.165 7.79162 46.165 7.90586V12.8955C46.165 13.386 46.0239 13.7657 45.7417 14.0345C45.4661 14.31 45.0831 14.4478 44.5925 14.4478H42.6975C42.5833 14.4478 42.5261 14.394 42.5261 14.2865V13.7623C42.5261 13.6481 42.5833 13.591 42.6975 13.591H44.4413C44.9319 13.591 45.1772 13.3423 45.1772 12.8451V12.079H45.1369C44.9689 12.4419 44.6295 12.6233 44.1188 12.6233ZM45.1772 10.9097V8.6921C45.1772 8.6249 45.1402 8.5913 45.0663 8.5913H43.8668C43.3897 8.5913 43.1511 8.83994 43.1511 9.33722V11.0105C43.1511 11.5078 43.3897 11.7564 43.8668 11.7564H44.3506C44.9017 11.7564 45.1772 11.4742 45.1772 10.9097Z" fill="white"/>
<path d="M48.0265 14.5083H47.4923C47.378 14.5083 47.3209 14.4511 47.3209 14.3369V13.8228C47.3209 13.7019 47.378 13.6414 47.4923 13.6414H47.7241C48.134 13.6414 48.4163 13.5607 48.5708 13.3995C48.7321 13.2382 48.8665 12.9727 48.974 12.6031H48.5708C48.47 12.6031 48.3995 12.546 48.3592 12.4318L47.0185 7.90586C46.9916 7.79162 47.0353 7.7345 47.1496 7.7345H47.8249C47.9324 7.7345 47.9996 7.79162 48.0265 7.90586L49.1252 11.8572H49.1656L50.2643 7.90586C50.2844 7.79162 50.3516 7.7345 50.4659 7.7345H51.111C51.2387 7.7345 51.2924 7.79498 51.2723 7.91594L49.8913 12.7644C49.7368 13.3289 49.5184 13.759 49.2361 14.0547C48.9539 14.3571 48.5507 14.5083 48.0265 14.5083Z" fill="white"/>
<path d="M56.3332 12.8753H55.4663C55.3655 12.8753 55.2983 12.8182 55.2647 12.7039L54.1055 7.90586C54.0787 7.79162 54.119 7.7345 54.2265 7.7345H54.9523C55.0732 7.7345 55.1404 7.79162 55.1539 7.90586L55.8897 11.7161H55.9603L56.8473 7.90586C56.8675 7.79162 56.9313 7.7345 57.0388 7.7345H57.7041C57.8183 7.7345 57.8889 7.79162 57.9158 7.90586L58.7826 11.7161H58.8532L59.5891 7.90586C59.6092 7.79162 59.6764 7.7345 59.7906 7.7345H60.5164C60.6306 7.7345 60.671 7.79162 60.6374 7.90586L59.4782 12.7039C59.458 12.8182 59.3908 12.8753 59.2766 12.8753H58.4097C58.3022 12.8753 58.235 12.8182 58.2081 12.7039L57.4017 8.96426H57.3311L56.5348 12.7039C56.5147 12.8182 56.4475 12.8753 56.3332 12.8753Z" fill="white"/>
<path d="M65.1371 12.8753H62.9599C62.4626 12.8753 62.0762 12.7375 61.8007 12.462C61.5319 12.1865 61.3975 11.8035 61.3975 11.3129V9.2969C61.3975 8.79962 61.5319 8.41658 61.8007 8.14778C62.0762 7.87226 62.4626 7.7345 62.9599 7.7345H63.7864C64.2837 7.7345 64.6701 7.87226 64.9456 8.14778C65.2211 8.41658 65.3589 8.79962 65.3589 9.2969V10.5771C65.3589 10.698 65.2984 10.7585 65.1775 10.7585H62.476C62.4021 10.7585 62.3651 10.7921 62.3651 10.8593V11.2927C62.3651 11.7833 62.6104 12.0286 63.101 12.0286H65.1371C65.2581 12.0286 65.3186 12.0891 65.3186 12.21V12.714C65.3186 12.8215 65.2581 12.8753 65.1371 12.8753ZM62.476 10.0731H64.2803C64.3475 10.0731 64.3811 10.0395 64.3811 9.97226V9.32714C64.3811 9.07178 64.324 8.88698 64.2098 8.77274C64.0955 8.65178 63.9107 8.5913 63.6554 8.5913H63.101C62.8456 8.5913 62.6608 8.65178 62.5466 8.77274C62.4323 8.88698 62.3752 9.07178 62.3752 9.32714V9.97226C62.3752 10.0395 62.4088 10.0731 62.476 10.0731Z" fill="white"/>
<path d="M67.558 12.0185H68.8079C69.2918 12.0185 69.5337 11.7699 69.5337 11.2726V9.2969C69.5337 8.79962 69.2918 8.55098 68.8079 8.55098H68.2737C67.7226 8.55098 67.4471 8.83322 67.4471 9.3977V11.9076C67.4471 11.9815 67.4841 12.0185 67.558 12.0185ZM66.4694 12.7039V5.96042C66.4694 5.84618 66.5265 5.78906 66.6407 5.78906H67.2758C67.39 5.78906 67.4471 5.84618 67.4471 5.96042V8.2385H67.4874C67.6554 7.87562 67.9948 7.69418 68.5055 7.69418H68.949C69.4463 7.69418 69.8327 7.83194 70.1082 8.10746C70.3838 8.37626 70.5215 8.75594 70.5215 9.2465V11.3129C70.5215 11.8035 70.3838 12.1865 70.1082 12.462C69.8327 12.7375 69.4463 12.8753 68.949 12.8753H66.6407C66.5265 12.8753 66.4694 12.8182 66.4694 12.7039Z" fill="white"/>
<g clip-path="url(#clip0_1470_19974)">
<path d="M9.75907 0.28125C7.83667 0.28125 5.95743 0.851377 4.35892 1.91939C2.76042 2.98741 1.5146 4.50545 0.778993 6.28161C0.0432439 8.05763 -0.149245 10.012 0.225898 11.8976C0.600894 13.7831 1.52664 15.5149 2.88596 16.8743C4.24528 18.2337 5.97725 19.1595 7.86266 19.5345C9.74821 19.9095 11.7025 19.717 13.4786 18.9814C15.2547 18.2456 16.7727 16.9998 17.8407 15.4015C18.9087 13.803 19.4789 11.9237 19.4789 10.0013C19.4781 7.42363 18.4539 4.95166 16.6312 3.1291C14.8084 1.30639 12.3368 0.281984 9.75907 0.28125Z" fill="#A166FF"/>
<path d="M9.40791 14.647C9.40507 14.6784 9.38694 14.7208 9.33351 14.7558C8.80031 15.1057 8.1891 15.3194 7.55077 15.3257C6.42763 15.324 5.39984 14.7143 4.6214 13.5899C3.92129 12.515 3.53403 11.2949 3.50251 10.0124C3.50251 9.96075 3.50913 9.94388 3.51811 9.92718C3.52962 9.9059 3.55421 9.88715 3.58242 9.87375L4.32572 9.54245C4.344 9.53425 4.3637 9.52889 4.38388 9.52874C4.41035 9.52858 4.43274 9.53551 4.45622 9.54828C4.48632 9.56467 4.51895 9.61038 4.51911 9.64159C4.52147 10.9163 4.85813 12.123 5.4662 13.0137C6.04116 13.8572 6.78998 14.311 7.57015 14.3122C7.94795 14.3137 8.31739 14.2134 8.64254 14.0244C8.68037 14.0024 8.71851 13.9798 8.75524 13.9556C8.768 13.9471 8.80425 13.94 8.83389 13.9425C8.86352 13.945 8.89346 13.9646 8.9119 13.9868C9.06179 14.1827 9.21341 14.3636 9.37638 14.5442C9.40444 14.5753 9.40964 14.6278 9.40791 14.647Z" fill="white"/>
<path d="M14.996 13.606C14.2294 14.7126 13.183 15.3344 12.0611 15.3326C10.9393 15.3309 9.90896 14.706 9.13162 13.5968C8.4003 12.535 7.99697 11.1296 7.99934 9.64301C8.00154 8.27132 8.79858 7.19531 9.7969 7.19688C10.7951 7.19846 11.5902 8.27699 11.588 9.64868C11.6038 10.8445 11.3174 12.025 10.7553 13.0805C10.7486 13.0942 10.7155 13.1363 10.6718 13.1403C10.6327 13.1437 10.5968 13.1264 10.5802 13.1089C10.5771 13.1056 10.5735 13.1015 10.5679 13.0956C10.4751 12.9859 10.3808 12.8774 10.3033 12.7677C10.21 12.6326 10.131 12.5035 10.0549 12.358C10.0325 12.3167 10.0368 12.289 10.0666 12.2179C10.3451 11.5526 10.5867 10.528 10.5848 9.63198C10.5834 8.96134 10.2428 8.19598 9.79028 8.19519C9.33778 8.19456 8.99355 8.95882 8.99261 9.62946C8.99056 10.9044 9.33163 12.1109 9.93969 13.0016C10.5159 13.8438 11.2635 14.2976 12.0437 14.2989C12.8238 14.3001 13.5742 13.8334 14.1517 13.0082C14.7612 12.1167 15.1073 10.9189 15.1094 9.63891C15.1112 8.35895 14.7714 7.16394 14.1623 6.2706C14.0132 6.04537 13.8355 5.84111 13.6371 5.65828C13.6043 5.62802 13.5726 5.59618 13.5386 5.56718C13.518 5.54417 13.5053 5.51517 13.5025 5.48428C13.4998 5.45354 13.5071 5.42029 13.5301 5.39507C13.5499 5.3719 13.5726 5.36307 13.5733 5.36244L14.3363 5.02263C14.3635 5.00924 14.3848 5.00861 14.4083 5.01428C14.4318 5.01995 14.4444 5.03477 14.4636 5.05337C14.6578 5.25101 14.8353 5.46457 14.9943 5.69153C15.7258 6.75336 16.129 8.15878 16.1266 9.64537C16.1244 11.1318 15.7307 12.5465 14.996 13.606Z" fill="white"/>
</g>
<defs>
<clipPath id="clip0_1470_19974">
<rect width="19.44" height="19.44" fill="white" transform="translate(0.0390625 0.273438)"/>
</clipPath>
</defs>
</svg>
