<svg width="168" height="28" viewBox="0 0 168 28" fill="none" xmlns="http://www.w3.org/2000/svg">
<path d="M2.142 18.8779H1.26C1.10133 18.8779 1.022 18.7986 1.022 18.6399V10.1139C1.022 9.95526 1.10133 9.87593 1.26 9.87593H4.592C5.27333 9.87593 5.80533 10.0673 6.188 10.4499C6.57067 10.8233 6.762 11.3553 6.762 12.0459V13.5019C6.762 14.1833 6.57067 14.7153 6.188 15.0979C5.80533 15.4806 5.27333 15.6719 4.592 15.6719H2.548C2.436 15.6719 2.38 15.7186 2.38 15.8119V18.6399C2.38 18.7986 2.30067 18.8779 2.142 18.8779ZM2.534 14.4679H4.396C5.05867 14.4679 5.39 14.1226 5.39 13.4319V12.1019C5.39 11.4113 5.05867 11.0659 4.396 11.0659H2.534C2.43133 11.0659 2.38 11.1126 2.38 11.2059V14.3279C2.38 14.4213 2.43133 14.4679 2.534 14.4679ZM11.5405 18.8779H10.3085C9.61782 18.8779 9.08115 18.6866 8.69848 18.3039C8.32515 17.9213 8.13848 17.3893 8.13848 16.7079V13.9079C8.13848 13.2173 8.32515 12.6853 8.69848 12.3119C9.08115 11.9293 9.61782 11.7379 10.3085 11.7379H11.5405C12.2218 11.7379 12.7538 11.9293 13.1365 12.3119C13.5285 12.6853 13.7245 13.2173 13.7245 13.9079V16.7079C13.7245 17.3893 13.5285 17.9213 13.1365 18.3039C12.7538 18.6866 12.2218 18.8779 11.5405 18.8779ZM10.5045 17.6879H11.3585C12.0305 17.6879 12.3665 17.3473 12.3665 16.6659V13.9499C12.3665 13.2686 12.0305 12.9279 11.3585 12.9279H10.5045C10.1498 12.9279 9.89315 13.0119 9.73448 13.1799C9.57582 13.3386 9.49648 13.5953 9.49648 13.9499V16.6659C9.49648 17.0206 9.57582 17.2819 9.73448 17.4499C9.89315 17.6086 10.1498 17.6879 10.5045 17.6879ZM17.8392 18.8779H16.6352C16.4952 18.8779 16.4018 18.7986 16.3552 18.6399L14.7452 11.9759C14.7078 11.8173 14.7638 11.7379 14.9132 11.7379H15.9212C16.0892 11.7379 16.1825 11.8173 16.2012 11.9759L17.2232 17.2679H17.3212L18.5532 11.9759C18.5812 11.8173 18.6698 11.7379 18.8192 11.7379H19.7432C19.9018 11.7379 19.9998 11.8173 20.0372 11.9759L21.2412 17.2679H21.3392L22.3612 11.9759C22.3892 11.8173 22.4825 11.7379 22.6412 11.7379H23.6492C23.8078 11.7379 23.8638 11.8173 23.8172 11.9759L22.2072 18.6399C22.1792 18.7986 22.0858 18.8779 21.9272 18.8779H20.7232C20.5738 18.8779 20.4805 18.7986 20.4432 18.6399L19.3232 13.4459H19.2252L18.1192 18.6399C18.0912 18.7986 17.9978 18.8779 17.8392 18.8779ZM30.0669 18.8779H27.0429C26.3522 18.8779 25.8155 18.6866 25.4329 18.3039C25.0595 17.9213 24.8729 17.3893 24.8729 16.7079V13.9079C24.8729 13.2173 25.0595 12.6853 25.4329 12.3119C25.8155 11.9293 26.3522 11.7379 27.0429 11.7379H28.1909C28.8815 11.7379 29.4182 11.9293 29.8009 12.3119C30.1835 12.6853 30.3749 13.2173 30.3749 13.9079V15.6859C30.3749 15.8539 30.2909 15.9379 30.1229 15.9379H26.3709C26.2682 15.9379 26.2169 15.9846 26.2169 16.0779V16.6799C26.2169 17.3613 26.5575 17.7019 27.2389 17.7019H30.0669C30.2349 17.7019 30.3189 17.7859 30.3189 17.9539V18.6539C30.3189 18.8033 30.2349 18.8779 30.0669 18.8779ZM26.3709 14.9859H28.8769C28.9702 14.9859 29.0169 14.9393 29.0169 14.8459V13.9499C29.0169 13.5953 28.9375 13.3386 28.7789 13.1799C28.6202 13.0119 28.3635 12.9279 28.0089 12.9279H27.2389C26.8842 12.9279 26.6275 13.0119 26.4689 13.1799C26.3102 13.3386 26.2309 13.5953 26.2309 13.9499V14.8459C26.2309 14.9393 26.2775 14.9859 26.3709 14.9859ZM33.0372 18.8779H32.1552C31.9965 18.8779 31.9172 18.7986 31.9172 18.6399V11.9759C31.9172 11.8173 31.9965 11.7379 32.1552 11.7379H33.0372C33.1958 11.7379 33.2752 11.8173 33.2752 11.9759V12.5079H33.3312C33.4245 12.2746 33.6018 12.0879 33.8632 11.9479C34.1338 11.8079 34.4325 11.7379 34.7592 11.7379H35.2772C35.4358 11.7379 35.5152 11.8173 35.5152 11.9759V12.7039C35.5152 12.8813 35.4358 12.9559 35.2772 12.9279H34.4372C33.6625 12.9279 33.2752 13.3526 33.2752 14.2019V18.6399C33.2752 18.7986 33.1958 18.8779 33.0372 18.8779ZM41.6606 18.8779H38.6366C37.9459 18.8779 37.4093 18.6866 37.0266 18.3039C36.6533 17.9213 36.4666 17.3893 36.4666 16.7079V13.9079C36.4666 13.2173 36.6533 12.6853 37.0266 12.3119C37.4093 11.9293 37.9459 11.7379 38.6366 11.7379H39.7846C40.4753 11.7379 41.0119 11.9293 41.3946 12.3119C41.7773 12.6853 41.9686 13.2173 41.9686 13.9079V15.6859C41.9686 15.8539 41.8846 15.9379 41.7166 15.9379H37.9646C37.8619 15.9379 37.8106 15.9846 37.8106 16.0779V16.6799C37.8106 17.3613 38.1513 17.7019 38.8326 17.7019H41.6606C41.8286 17.7019 41.9126 17.7859 41.9126 17.9539V18.6539C41.9126 18.8033 41.8286 18.8779 41.6606 18.8779ZM37.9646 14.9859H40.4706C40.5639 14.9859 40.6106 14.9393 40.6106 14.8459V13.9499C40.6106 13.5953 40.5313 13.3386 40.3726 13.1799C40.2139 13.0119 39.9573 12.9279 39.6026 12.9279H38.8326C38.4779 12.9279 38.2213 13.0119 38.0626 13.1799C37.9039 13.3386 37.8246 13.5953 37.8246 13.9499V14.8459C37.8246 14.9393 37.8713 14.9859 37.9646 14.9859ZM46.1709 18.8779H45.4569C44.7849 18.8779 44.2669 18.6913 43.9029 18.3179C43.5482 17.9353 43.3709 17.3986 43.3709 16.7079V13.9079C43.3709 13.2079 43.5482 12.6713 43.9029 12.2979C44.2669 11.9246 44.7849 11.7379 45.4569 11.7379H46.1709C46.8896 11.7379 47.3562 11.9853 47.5709 12.4799H47.6269V9.27393C47.6269 9.11526 47.7062 9.03593 47.8649 9.03593H48.7609C48.9196 9.03593 48.9989 9.11526 48.9989 9.27393V18.6399C48.9989 18.7986 48.9196 18.8779 48.7609 18.8779H47.8649C47.7062 18.8779 47.6269 18.7986 47.6269 18.6399V18.1359H47.5709C47.3562 18.6306 46.8896 18.8779 46.1709 18.8779ZM47.6269 16.4979V14.1179C47.6269 13.3246 47.2442 12.9279 46.4789 12.9279H45.7369C45.0649 12.9279 44.7289 13.2733 44.7289 13.9639V16.6519C44.7289 17.3426 45.0649 17.6879 45.7369 17.6879H46.4789C47.2442 17.6879 47.6269 17.2913 47.6269 16.4979ZM55.7449 17.7159H57.7049C58.4049 17.7159 58.7549 17.3799 58.7549 16.7079V15.8399C58.7549 15.1679 58.3863 14.8319 57.6489 14.8319H55.7449C55.6423 14.8319 55.5909 14.8786 55.5909 14.9719V17.5759C55.5909 17.6693 55.6423 17.7159 55.7449 17.7159ZM55.7449 13.7119H57.5649C58.2743 13.7119 58.6289 13.3713 58.6289 12.6899V12.0459C58.6289 11.3739 58.2836 11.0379 57.5929 11.0379H55.7449C55.6423 11.0379 55.5909 11.0846 55.5909 11.1779V13.5719C55.5909 13.6653 55.6423 13.7119 55.7449 13.7119ZM54.2329 18.6399V10.1139C54.2329 9.95526 54.3123 9.87593 54.4709 9.87593H57.7889C58.4796 9.87593 59.0163 10.0626 59.3989 10.4359C59.7816 10.8093 59.9729 11.3366 59.9729 12.0179V12.7039C59.9729 13.5159 59.5903 14.0386 58.8249 14.2719C59.1889 14.3186 59.4876 14.4773 59.7209 14.7479C59.9636 15.0186 60.0849 15.3826 60.0849 15.8399V16.7359C60.0849 17.4173 59.8936 17.9446 59.5109 18.3179C59.1283 18.6913 58.5963 18.8779 57.9149 18.8779H54.4709C54.3123 18.8779 54.2329 18.7986 54.2329 18.6399ZM62.6575 21.1459H61.9155C61.7569 21.1459 61.6775 21.0666 61.6775 20.9079V20.1939C61.6775 20.0259 61.7569 19.9419 61.9155 19.9419H62.2375C62.8069 19.9419 63.1989 19.8299 63.4135 19.6059C63.6375 19.3819 63.8242 19.0133 63.9735 18.4999H63.4135C63.2735 18.4999 63.1755 18.4206 63.1195 18.2619L61.2575 11.9759C61.2202 11.8173 61.2809 11.7379 61.4395 11.7379H62.3775C62.5269 11.7379 62.6202 11.8173 62.6575 11.9759L64.1835 17.4639H64.2395L65.7655 11.9759C65.7935 11.8173 65.8869 11.7379 66.0455 11.7379H66.9415C67.1189 11.7379 67.1935 11.8219 67.1655 11.9899L65.2475 18.7239C65.0329 19.5079 64.7295 20.1053 64.3375 20.5159C63.9455 20.9359 63.3855 21.1459 62.6575 21.1459ZM106.752 18.8779H103.728C103.038 18.8779 102.501 18.6866 102.118 18.3039C101.745 17.9213 101.558 17.3893 101.558 16.7079V13.9079C101.558 13.2173 101.745 12.6853 102.118 12.3119C102.501 11.9293 103.038 11.7379 103.728 11.7379H104.876C105.567 11.7379 106.104 11.9293 106.486 12.3119C106.869 12.6853 107.06 13.2173 107.06 13.9079V15.6859C107.06 15.8539 106.976 15.9379 106.808 15.9379H103.056C102.954 15.9379 102.902 15.9846 102.902 16.0779V16.6799C102.902 17.3613 103.243 17.7019 103.924 17.7019H106.752C106.92 17.7019 107.004 17.7859 107.004 17.9539V18.6539C107.004 18.8033 106.92 18.8779 106.752 18.8779ZM103.056 14.9859H105.562C105.656 14.9859 105.702 14.9393 105.702 14.8459V13.9499C105.702 13.5953 105.623 13.3386 105.464 13.1799C105.306 13.0119 105.049 12.9279 104.694 12.9279H103.924C103.57 12.9279 103.313 13.0119 103.154 13.1799C102.996 13.3386 102.916 13.5953 102.916 13.9499V14.8459C102.916 14.9393 102.963 14.9859 103.056 14.9859ZM109.723 18.8779H108.841C108.682 18.8779 108.603 18.7986 108.603 18.6399V11.9759C108.603 11.8173 108.682 11.7379 108.841 11.7379H109.723C109.881 11.7379 109.961 11.8173 109.961 11.9759V12.4799H110.017C110.241 11.9853 110.712 11.7379 111.431 11.7379H112.047C112.728 11.7379 113.251 11.9246 113.615 12.2979C113.979 12.6713 114.161 13.2079 114.161 13.9079V18.6399C114.161 18.7986 114.077 18.8779 113.909 18.8779H113.027C112.868 18.8779 112.789 18.7986 112.789 18.6399V13.9639C112.789 13.2733 112.448 12.9279 111.767 12.9279H111.109C110.343 12.9279 109.961 13.3246 109.961 14.1179V18.6399C109.961 18.7986 109.881 18.8779 109.723 18.8779ZM120.889 18.8779H117.865C117.174 18.8779 116.638 18.6866 116.255 18.3039C115.882 17.9213 115.695 17.3893 115.695 16.7079V13.9079C115.695 13.2173 115.882 12.6853 116.255 12.3119C116.638 11.9293 117.174 11.7379 117.865 11.7379H119.013C119.704 11.7379 120.24 11.9293 120.623 12.3119C121.006 12.6853 121.197 13.2173 121.197 13.9079V15.6859C121.197 15.8539 121.113 15.9379 120.945 15.9379H117.193C117.09 15.9379 117.039 15.9846 117.039 16.0779V16.6799C117.039 17.3613 117.38 17.7019 118.061 17.7019H120.889C121.057 17.7019 121.141 17.7859 121.141 17.9539V18.6539C121.141 18.8033 121.057 18.8779 120.889 18.8779ZM117.193 14.9859H119.699C119.792 14.9859 119.839 14.9393 119.839 14.8459V13.9499C119.839 13.5953 119.76 13.3386 119.601 13.1799C119.442 13.0119 119.186 12.9279 118.831 12.9279H118.061C117.706 12.9279 117.45 13.0119 117.291 13.1799C117.132 13.3386 117.053 13.5953 117.053 13.9499V14.8459C117.053 14.9393 117.1 14.9859 117.193 14.9859ZM123.859 18.8779H122.977C122.819 18.8779 122.739 18.7986 122.739 18.6399V11.9759C122.739 11.8173 122.819 11.7379 122.977 11.7379H123.859C124.018 11.7379 124.097 11.8173 124.097 11.9759V12.5079H124.153C124.247 12.2746 124.424 12.0879 124.685 11.9479C124.956 11.8079 125.255 11.7379 125.581 11.7379H126.099C126.258 11.7379 126.337 11.8173 126.337 11.9759V12.7039C126.337 12.8813 126.258 12.9559 126.099 12.9279H125.259C124.485 12.9279 124.097 13.3526 124.097 14.2019V18.6399C124.097 18.7986 124.018 18.8779 123.859 18.8779ZM130.033 18.5279H129.403C128.731 18.5279 128.213 18.3413 127.849 17.9679C127.494 17.5853 127.317 17.0486 127.317 16.3579V13.9079C127.317 13.2173 127.508 12.6853 127.891 12.3119C128.274 11.9293 128.806 11.7379 129.487 11.7379H132.623C132.791 11.7379 132.875 11.8173 132.875 11.9759V18.9059C132.875 19.5873 132.679 20.1146 132.287 20.4879C131.904 20.8706 131.372 21.0619 130.691 21.0619H128.059C127.9 21.0619 127.821 20.9873 127.821 20.8379V20.1099C127.821 19.9513 127.9 19.8719 128.059 19.8719H130.481C131.162 19.8719 131.503 19.5266 131.503 18.8359V17.7719H131.447C131.214 18.2759 130.742 18.5279 130.033 18.5279ZM131.503 16.1479V13.0679C131.503 12.9746 131.452 12.9279 131.349 12.9279H129.683C129.02 12.9279 128.689 13.2733 128.689 13.9639V16.2879C128.689 16.9786 129.02 17.3239 129.683 17.3239H130.355C131.12 17.3239 131.503 16.9319 131.503 16.1479ZM135.46 21.1459H134.718C134.56 21.1459 134.48 21.0666 134.48 20.9079V20.1939C134.48 20.0259 134.56 19.9419 134.718 19.9419H135.04C135.61 19.9419 136.002 19.8299 136.216 19.6059C136.44 19.3819 136.627 19.0133 136.776 18.4999H136.216C136.076 18.4999 135.978 18.4206 135.922 18.2619L134.06 11.9759C134.023 11.8173 134.084 11.7379 134.242 11.7379H135.18C135.33 11.7379 135.423 11.8173 135.46 11.9759L136.986 17.4639H137.042L138.568 11.9759C138.596 11.8173 138.69 11.7379 138.848 11.7379H139.744C139.922 11.7379 139.996 11.8219 139.968 11.9899L138.05 18.7239C137.836 19.5079 137.532 20.1053 137.14 20.5159C136.748 20.9359 136.188 21.1459 135.46 21.1459ZM146.997 18.8779H145.793C145.653 18.8779 145.56 18.7986 145.513 18.6399L143.903 11.9759C143.866 11.8173 143.922 11.7379 144.071 11.7379H145.079C145.247 11.7379 145.341 11.8173 145.359 11.9759L146.381 17.2679H146.479L147.711 11.9759C147.739 11.8173 147.828 11.7379 147.977 11.7379H148.901C149.06 11.7379 149.158 11.8173 149.195 11.9759L150.399 17.2679H150.497L151.519 11.9759C151.547 11.8173 151.641 11.7379 151.799 11.7379H152.807C152.966 11.7379 153.022 11.8173 152.975 11.9759L151.365 18.6399C151.337 18.7986 151.244 18.8779 151.085 18.8779H149.881C149.732 18.8779 149.639 18.7986 149.601 18.6399L148.481 13.4459H148.383L147.277 18.6399C147.249 18.7986 147.156 18.8779 146.997 18.8779ZM159.225 18.8779H156.201C155.51 18.8779 154.974 18.6866 154.591 18.3039C154.218 17.9213 154.031 17.3893 154.031 16.7079V13.9079C154.031 13.2173 154.218 12.6853 154.591 12.3119C154.974 11.9293 155.51 11.7379 156.201 11.7379H157.349C158.04 11.7379 158.576 11.9293 158.959 12.3119C159.342 12.6853 159.533 13.2173 159.533 13.9079V15.6859C159.533 15.8539 159.449 15.9379 159.281 15.9379H155.529C155.426 15.9379 155.375 15.9846 155.375 16.0779V16.6799C155.375 17.3613 155.716 17.7019 156.397 17.7019H159.225C159.393 17.7019 159.477 17.7859 159.477 17.9539V18.6539C159.477 18.8033 159.393 18.8779 159.225 18.8779ZM155.529 14.9859H158.035C158.128 14.9859 158.175 14.9393 158.175 14.8459V13.9499C158.175 13.5953 158.096 13.3386 157.937 13.1799C157.778 13.0119 157.522 12.9279 157.167 12.9279H156.397C156.042 12.9279 155.786 13.0119 155.627 13.1799C155.468 13.3386 155.389 13.5953 155.389 13.9499V14.8459C155.389 14.9393 155.436 14.9859 155.529 14.9859ZM162.587 17.6879H164.323C164.995 17.6879 165.331 17.3426 165.331 16.6519V13.9079C165.331 13.2173 164.995 12.8719 164.323 12.8719H163.581C162.816 12.8719 162.433 13.2639 162.433 14.0479V17.5339C162.433 17.6366 162.485 17.6879 162.587 17.6879ZM161.075 18.6399V9.27393C161.075 9.11526 161.155 9.03593 161.313 9.03593H162.195C162.354 9.03593 162.433 9.11526 162.433 9.27393V12.4379H162.489C162.723 11.9339 163.194 11.6819 163.903 11.6819H164.519C165.21 11.6819 165.747 11.8733 166.129 12.2559C166.512 12.6293 166.703 13.1566 166.703 13.8379V16.7079C166.703 17.3893 166.512 17.9213 166.129 18.3039C165.747 18.6866 165.21 18.8779 164.519 18.8779H161.313C161.155 18.8779 161.075 18.7986 161.075 18.6399Z" fill="black"/>
<g clip-path="url(#clip0_124_2673)">
<circle cx="84.5" cy="14.3779" r="12.5" fill="white"/>
<path d="M84.4892 0.87793C77.0409 0.87793 71 6.91883 71 14.3671C71 21.8154 77.0409 27.8563 84.4892 27.8563C91.9374 27.8563 97.9783 21.8154 97.9783 14.3671C98 6.91883 91.9591 0.87793 84.4892 0.87793ZM83.8829 21.0143C83.1468 21.5339 82.259 21.837 81.3713 21.837C79.8123 21.837 78.3833 20.9926 77.3007 19.4337C76.3264 17.9397 75.7851 16.2075 75.7418 14.4321C75.7418 14.3671 75.7851 14.3021 75.85 14.2805L76.911 13.8042C76.9976 13.7608 77.0842 13.8042 77.1275 13.8908C77.1275 13.9124 77.1492 13.9341 77.1492 13.9557C77.1492 15.7312 77.6255 17.3984 78.4699 18.6325C79.271 19.8017 80.3103 20.4297 81.3929 20.4297C81.9775 20.4297 82.5621 20.2564 83.0385 19.9317C83.1034 19.8884 83.2117 19.91 83.255 19.975C83.4715 20.2564 83.6881 20.5163 83.9262 20.7761C83.9479 20.841 83.9479 20.9493 83.8829 21.0143ZM91.6993 19.4337C90.6383 20.971 89.1877 21.837 87.6287 21.837C86.0698 21.837 84.6407 20.971 83.5581 19.4337C82.5405 17.9613 81.9775 16.0127 81.9775 13.9557C81.9775 12.0503 83.0818 10.5564 84.4675 10.5564C85.8532 10.5564 86.9575 12.0503 86.9575 13.9557C86.9791 15.6229 86.5894 17.2468 85.8099 18.7191C85.7666 18.8058 85.6584 18.8274 85.5934 18.7841C85.5718 18.7841 85.5718 18.7625 85.5501 18.7408C85.4202 18.5892 85.2903 18.4377 85.182 18.2861C85.0521 18.0912 84.9439 17.918 84.8356 17.7015C84.814 17.6582 84.814 17.5932 84.8356 17.5499C85.3336 16.4024 85.5718 15.1682 85.5718 13.9341C85.5718 13.003 85.0954 11.9421 84.4675 11.9421C83.8396 11.9421 83.3633 13.003 83.3633 13.9341C83.3633 15.7095 83.8396 17.3767 84.684 18.6109C85.4852 19.7801 86.5245 20.408 87.6071 20.408C88.6897 20.408 89.7289 19.7584 90.5301 18.6109C91.3745 17.3767 91.8508 15.7095 91.8508 13.9341C91.8508 12.1586 91.3745 10.4914 90.5301 9.25724C90.2919 8.88916 89.9888 8.56438 89.664 8.2829C89.599 8.21795 89.599 8.10969 89.6423 8.04473C89.664 8.02308 89.6856 8.00143 89.7073 8.00143L90.7682 7.52508C90.8332 7.50343 90.8982 7.50343 90.9415 7.56839C91.2229 7.84986 91.4611 8.15299 91.6776 8.45612C92.6953 9.92845 93.2582 11.8771 93.2582 13.9341C93.2582 15.991 92.7169 17.9613 91.6993 19.4337Z" fill="#A566FF"/>
</g>
<defs>
<clipPath id="clip0_124_2673">
<rect width="27" height="27" fill="white" transform="translate(71 0.87793)"/>
</clipPath>
</defs>
</svg>
