<svg width="27" height="27" viewBox="0 0 27 27" fill="none" xmlns="http://www.w3.org/2000/svg">
<g id="energy-web-token-ewt-seeklogo.com 1" clip-path="url(#clip0_806_1007)">
<path id="Vector" d="M13.4892 0C6.0409 0 0 6.0409 0 13.4892C0 20.9375 6.0409 26.9783 13.4892 26.9783C20.9374 26.9783 26.9783 20.9375 26.9783 13.4892C27 6.0409 20.9591 0 13.4892 0ZM12.8829 20.1363C12.1468 20.656 11.259 20.9591 10.3713 20.9591C8.81235 20.9591 7.38332 20.1147 6.30072 18.5557C5.32638 17.0617 4.78508 15.3296 4.74178 13.5541C4.74178 13.4892 4.78508 13.4242 4.85004 13.4026L5.91099 12.9262C5.99759 12.8829 6.0842 12.9262 6.12751 13.0128C6.12751 13.0345 6.14916 13.0561 6.14916 13.0778C6.14916 14.8532 6.6255 16.5205 7.46993 17.7546C8.27105 18.9238 9.31034 19.5517 10.3929 19.5517C10.9775 19.5517 11.5621 19.3785 12.0385 19.0537C12.1034 19.0104 12.2117 19.0321 12.255 19.097C12.4715 19.3785 12.6881 19.6383 12.9262 19.8982C12.9479 19.9631 12.9479 20.0714 12.8829 20.1363ZM20.6993 18.5557C19.6383 20.093 18.1877 20.9591 16.6287 20.9591C15.0698 20.9591 13.6407 20.093 12.5581 18.5557C11.5405 17.0834 10.9775 15.1347 10.9775 13.0778C10.9775 11.1724 12.0818 9.67843 13.4675 9.67843C14.8532 9.67843 15.9575 11.1724 15.9575 13.0778C15.9791 14.745 15.5894 16.3689 14.8099 17.8412C14.7666 17.9278 14.6584 17.9495 14.5934 17.9062C14.5718 17.9062 14.5718 17.8845 14.5501 17.8629C14.4202 17.7113 14.2903 17.5597 14.182 17.4082C14.0521 17.2133 13.9439 17.0401 13.8356 16.8236C13.814 16.7803 13.814 16.7153 13.8356 16.672C14.3336 15.5245 14.5718 14.2903 14.5718 13.0561C14.5718 12.1251 14.0954 11.0642 13.4675 11.0642C12.8396 11.0642 12.3633 12.1251 12.3633 13.0561C12.3633 14.8316 12.8396 16.4988 13.684 17.733C14.4852 18.9022 15.5245 19.5301 16.6071 19.5301C17.6897 19.5301 18.7289 18.8805 19.5301 17.733C20.3745 16.4988 20.8508 14.8316 20.8508 13.0561C20.8508 11.2807 20.3745 9.61347 19.5301 8.37931C19.2919 8.01123 18.9888 7.68645 18.664 7.40497C18.599 7.34002 18.599 7.23176 18.6423 7.1668C18.664 7.14515 18.6856 7.1235 18.7073 7.1235L19.7682 6.64715C19.8332 6.6255 19.8982 6.6255 19.9415 6.69046C20.2229 6.97193 20.4611 7.27506 20.6776 7.57819C21.6953 9.05052 22.2582 10.9992 22.2582 13.0561C22.2582 15.1131 21.7169 17.0834 20.6993 18.5557Z" fill="white"/>
</g>
<defs>
<clipPath id="clip0_806_1007">
<rect width="27" height="27" fill="white"/>
</clipPath>
</defs>
</svg>
