<svg width="16" height="17" viewBox="0 0 16 17" fill="none" xmlns="http://www.w3.org/2000/svg">
<ellipse cx="7.9992" cy="8.03994" rx="7.40741" ry="7.44619" fill="white"/>
<path d="M7.99358 0C3.57979 0 0 3.59853 0 8.03543C0 12.4723 3.57979 16.0709 7.99358 16.0709C12.4074 16.0709 15.9872 12.4723 15.9872 8.03543C16 3.59853 12.4202 0 7.99358 0ZM7.63432 11.9951C7.19808 12.3047 6.67201 12.4852 6.14595 12.4852C5.22213 12.4852 4.3753 11.9822 3.73376 11.0536C3.15638 10.1636 2.83561 9.13176 2.80994 8.07413C2.80994 8.03543 2.83561 7.99674 2.8741 7.98384L3.50281 7.70009C3.55413 7.67429 3.60545 7.70009 3.63111 7.75168C3.63111 7.76458 3.64395 7.77748 3.64395 7.79037C3.64395 8.84801 3.92622 9.84115 4.42662 10.5763C4.90136 11.2728 5.51724 11.6469 6.15878 11.6469C6.50521 11.6469 6.85164 11.5437 7.13392 11.3502C7.17241 11.3244 7.23657 11.3373 7.26223 11.376C7.39054 11.5437 7.51885 11.6985 7.65998 11.8532C7.67281 11.8919 7.67281 11.9564 7.63432 11.9951ZM12.2662 11.0536C11.6375 11.9693 10.7779 12.4852 9.85405 12.4852C8.93023 12.4852 8.0834 11.9693 7.44186 11.0536C6.83881 10.1765 6.50521 9.01568 6.50521 7.79037C6.50521 6.65535 7.15958 5.76539 7.98075 5.76539C8.80192 5.76539 9.45629 6.65535 9.45629 7.79037C9.46912 8.78352 9.23817 9.75086 8.77626 10.6279C8.7506 10.6795 8.68645 10.6924 8.64795 10.6666C8.63512 10.6666 8.63512 10.6537 8.62229 10.6408C8.54531 10.5505 8.46832 10.4603 8.40417 10.37C8.32718 10.2539 8.26303 10.1507 8.19888 10.0217C8.18605 9.99593 8.18605 9.95723 8.19888 9.93144C8.49399 9.24784 8.63512 8.51266 8.63512 7.77748C8.63512 7.22286 8.35285 6.59086 7.98075 6.59086C7.60866 6.59086 7.32638 7.22286 7.32638 7.77748C7.32638 8.83511 7.60866 9.82825 8.10906 10.5634C8.5838 11.2599 9.19968 11.634 9.84122 11.634C10.4828 11.634 11.0986 11.247 11.5734 10.5634C12.0738 9.82825 12.3561 8.83511 12.3561 7.77748C12.3561 6.71984 12.0738 5.7267 11.5734 4.99151C11.4322 4.77225 11.2526 4.57878 11.0601 4.41111C11.0217 4.37241 11.0217 4.30792 11.0473 4.26923C11.0601 4.25633 11.073 4.24343 11.0858 4.24343L11.7145 3.95968C11.753 3.94678 11.7915 3.94678 11.8172 3.98547C11.984 4.15315 12.1251 4.33372 12.2534 4.51429C12.8565 5.39135 13.1901 6.55217 13.1901 7.77748C13.1901 9.00278 12.8693 10.1765 12.2662 11.0536Z" fill="#A566FF"/>
</svg>
