<svg width="56" height="56" viewBox="0 0 56 56" fill="none" xmlns="http://www.w3.org/2000/svg">
<path fill-rule="evenodd" clip-rule="evenodd" d="M28 0C43.4656 0 56 12.5344 56 28C56 43.4656 43.4656 56 28 56C12.5344 56 0 43.4656 0 28C0 12.5344 12.5344 0 28 0Z" fill="url(#paint0_radial_38_1069)"/>
<path d="M17.7954 21.6233C23.4282 16.1218 32.572 16.1218 38.2048 21.6233L38.8829 22.2905C39.1673 22.564 39.1673 23.0124 38.8829 23.2858L36.5642 25.5499C36.422 25.6921 36.1923 25.6921 36.0501 25.5499L35.1204 24.6421C31.1829 20.803 24.8173 20.803 20.8798 24.6421L19.8845 25.6155C19.7423 25.7577 19.5126 25.7577 19.3704 25.6155L17.0517 23.3515C16.7673 23.078 16.7673 22.6296 17.0517 22.3561L17.7954 21.6233ZM43.0063 26.3046L45.0735 28.3171C45.3579 28.5905 45.3579 29.039 45.0735 29.3124L35.7657 38.4015C35.4813 38.6749 35.022 38.6749 34.7485 38.4015L28.1423 31.9483C28.0767 31.8827 27.9563 31.8827 27.8907 31.9483L21.2845 38.4015C21.0001 38.6749 20.5407 38.6749 20.2673 38.4015L10.9267 29.3124C10.6423 29.039 10.6423 28.5905 10.9267 28.3171L12.9938 26.3046C13.2782 26.0311 13.7376 26.0311 14.011 26.3046L20.6173 32.7577C20.6829 32.8233 20.8032 32.8233 20.8688 32.7577L27.4751 26.3046C27.7595 26.0311 28.2188 26.0311 28.4923 26.3046L35.0985 32.7577C35.1642 32.8233 35.2845 32.8233 35.3501 32.7577L41.9563 26.3046C42.2626 26.0311 42.722 26.0311 43.0063 26.3046Z" fill="white"/>
<defs>
<radialGradient id="paint0_radial_38_1069" cx="0" cy="0" r="1" gradientUnits="userSpaceOnUse" gradientTransform="translate(0.000173569 28.0009) scale(56)">
<stop stop-color="#5D9DF6"/>
<stop offset="1" stop-color="#006FFF"/>
</radialGradient>
</defs>
</svg>
