<svg width="656" height="705" viewBox="0 0 656 705" fill="none" xmlns="http://www.w3.org/2000/svg">
<circle cx="437.8" cy="148.23" r="26.0191" fill="url(#paint0_diamond_3279_44563)"/>
<circle cx="546.981" cy="533.95" r="14.0201" fill="url(#paint1_diamond_3279_44563)"/>
<circle cx="398.762" cy="365.082" r="21.0433" fill="url(#paint2_diamond_3279_44563)"/>
<rect x="1" y="1" width="653" height="703" rx="49" fill="url(#paint3_radial_3279_44563)"/>
<rect x="1" y="1" width="653" height="703" rx="49" fill="url(#paint4_linear_3279_44563)"/>
<rect x="1" y="1" width="653" height="703" rx="49" stroke="url(#paint5_linear_3279_44563)" stroke-width="2"/>
<circle cx="146.019" cy="626.019" r="26.0191" fill="url(#paint6_diamond_3279_44563)"/>
<circle cx="114.02" cy="172.02" r="14.0201" fill="url(#paint7_diamond_3279_44563)"/>
<circle cx="559.019" cy="94.0191" r="26.0191" fill="url(#paint8_diamond_3279_44563)"/>
<circle cx="370.019" cy="574.019" r="26.0191" fill="url(#paint9_diamond_3279_44563)"/>
<circle cx="242.019" cy="70.0191" r="26.0191" fill="url(#paint10_diamond_3279_44563)"/>
<circle cx="587.747" cy="547.739" r="14.0201" fill="url(#paint11_diamond_3279_44563)"/>
<circle cx="158.02" cy="377.02" r="14.0201" fill="url(#paint12_diamond_3279_44563)"/>
<circle cx="459.95" cy="385.785" r="21.0433" fill="url(#paint13_diamond_3279_44563)"/>
<g clip-path="url(#clip0_3279_44563)">
<path d="M288.947 414.282C288.947 414.282 258.367 441.602 258.357 441.612L226.647 469.932C226.647 469.932 226.647 469.942 226.637 469.952L194.927 498.282C194.927 498.282 164.357 525.612 164.347 525.602C163.307 526.482 163.227 528.182 164.147 529.182C175.487 541.862 198.277 567.402 209.617 580.082C210.547 581.122 212.147 581.212 213.197 580.282L307.217 496.282L337.787 468.962C338.827 468.082 338.917 466.382 337.987 465.382L316.937 441.822L337.797 423.182C346.087 432.462 364.797 453.402 372.897 462.472C373.827 463.512 375.427 463.602 376.477 462.672L392.057 448.752L406.877 465.342C407.767 466.372 409.457 466.472 410.457 465.542L441.917 437.432C442.947 436.532 443.067 434.902 442.117 433.852L427.297 417.262L442.877 403.332C443.087 403.152 443.257 402.942 443.387 402.712C443.927 401.802 443.807 400.542 443.077 399.762L429.757 384.852C429.757 384.852 407.997 360.482 407.987 360.482L428.857 341.842L449.907 365.402C450.837 366.442 452.437 366.532 453.487 365.602L500.217 323.852C519.507 306.622 558.727 271.582 578.097 254.272C579.127 253.392 579.227 251.692 578.297 250.692C571.037 242.562 540.657 208.562 532.827 199.792C531.937 198.762 530.247 198.662 529.247 199.592L435.227 283.592C434.437 284.312 406.307 309.422 404.647 310.912C403.597 311.842 403.517 313.452 404.447 314.492L425.497 338.042L404.637 356.682L386.817 336.742L373.457 321.782C372.567 320.752 370.877 320.652 369.877 321.582L345.877 343.022L326.847 321.712C344.627 299.822 348.847 269.372 336.687 242.882C336.347 242.152 335.687 241.622 334.897 241.452C334.107 241.282 333.287 241.502 332.687 242.042L288.177 281.812L287.337 281.032L270.317 265.332C272.937 253.672 257.987 245.012 249.157 253.292C239.957 261.162 246.827 276.922 258.717 275.632L273.107 295.262L228.597 335.032C227.997 335.562 227.687 336.352 227.767 337.152C227.837 337.952 228.297 338.672 228.987 339.092C235.347 342.922 242.077 345.672 248.967 347.482C269.107 352.762 290.607 349.532 308.417 338.162L327.457 359.462L303.457 380.902C302.417 381.782 302.337 383.482 303.257 384.482L334.437 419.392L313.577 438.032L292.527 414.482C291.597 413.442 289.997 413.352 288.947 414.282ZM288.947 414.282L288.967 414.262M482.597 332.802L463.237 311.132L491.177 286.172L510.537 307.842L482.597 332.802ZM514.307 304.462L494.947 282.792L522.897 257.822L542.257 279.492L514.307 304.462ZM572.837 252.172L546.037 276.112L526.677 254.442L553.477 230.502L572.837 252.172ZM530.737 205.062L550.097 226.732L523.297 250.672L503.937 229.002L530.737 205.062ZM500.167 232.372L519.527 254.042L491.577 279.012L472.217 257.342L500.167 232.372ZM440.497 285.682L468.437 260.722L487.797 282.392L459.857 307.352L440.497 285.682ZM409.917 313.002L436.717 289.062L456.077 310.732L429.277 334.672L409.917 313.002ZM432.647 338.452L459.447 314.512L478.807 336.182L452.007 360.122L432.647 338.452ZM436.667 435.332L408.987 460.072L395.857 445.372L423.547 420.642L436.677 435.342L436.667 435.332ZM437.637 401.242C419.867 417.112 392.567 441.512 374.997 457.202L365.047 446.062L427.677 390.102L437.637 401.252V401.242ZM251.907 268.082C245.227 260.272 256.597 250.222 263.517 257.702C270.197 265.442 258.867 275.592 251.907 268.082ZM263.887 274.132C265.567 273.252 267.127 271.862 268.187 270.272L284.377 285.202L276.907 291.872L263.887 274.122V274.132ZM234.607 336.472C238.147 333.312 287.757 288.992 289.837 287.122L333.437 248.162C357.827 308.912 292.207 367.502 234.607 336.462V336.472ZM312.857 335.542L323.717 325.842L342.087 346.402L331.227 356.112L312.857 335.552V335.542ZM308.707 383.012L332.707 361.572C337.307 357.462 366.087 331.752 371.347 327.052L381.337 338.232L318.697 394.192L308.707 383.012ZM322.087 397.972L384.727 342.012L424.317 386.332L361.687 442.292L322.097 397.972H322.087ZM231.917 472.032L259.857 447.072L279.217 468.742L251.277 493.702L231.917 472.032ZM200.187 500.372L228.137 475.402L247.497 497.072L219.547 522.042L200.187 500.372ZM169.607 527.692L196.407 503.752L215.767 525.422L188.967 549.362L169.607 527.692ZM211.707 574.812L192.347 553.142L219.147 529.202L238.507 550.872L211.707 574.812ZM242.277 547.492L222.917 525.822L250.867 500.852L270.227 522.522L242.277 547.492ZM301.947 494.192L274.007 519.152L254.647 497.482L282.587 472.522L301.947 494.192ZM332.527 466.872L305.727 490.812L286.367 469.142L313.167 445.202L332.527 466.872ZM309.797 441.422L282.997 465.362L263.637 443.692L290.437 419.752L309.787 441.422H309.797Z" stroke="url(#paint14_linear_3279_44563)" stroke-width="7" stroke-linecap="round" stroke-linejoin="round"/>
<path d="M222 263.005L221.996 263.074L222.001 263.143C222.043 263.663 222.029 264.389 222.013 265.282C222.008 265.526 222.004 265.783 222 266.052C221.982 267.257 221.984 268.638 222.135 269.928C222.283 271.195 222.587 272.51 223.265 273.499C223.614 274.009 224.073 274.448 224.67 274.735C225.267 275.022 225.943 275.127 226.68 275.059L226.728 275.055L226.775 275.046C228.685 274.683 229.954 272.832 229.591 270.917L229.588 270.9L229.584 270.884C228.86 267.671 228.744 264.497 229.121 261.425L229.18 260.941L228.835 260.596L224.555 256.316L223.269 255.03L222.872 256.805C222.421 258.826 222.123 260.899 222 263.005Z" fill="black" stroke="black" stroke-width="2"/>
<path d="M268.7 235.811L268.732 235.718L268.717 235.82C270.594 236.409 272.597 235.31 273.144 233.471L273.155 233.434L273.163 233.395C273.318 232.674 273.295 231.992 273.081 231.366C272.869 230.742 272.488 230.236 272.024 229.833C271.125 229.05 269.859 228.605 268.627 228.32C267.371 228.03 266.01 227.877 264.821 227.762C264.564 227.737 264.318 227.715 264.083 227.693C263.194 227.61 262.474 227.544 261.968 227.445L261.9 227.431L261.831 227.427C258.691 227.253 255.589 227.458 252.578 228.034L250.724 228.388L252.059 229.723L256.479 234.143L256.809 234.474L257.275 234.432C261.021 234.094 264.889 234.499 268.7 235.811Z" fill="black" stroke="black" stroke-width="2"/>
<path d="M236.849 212.584L235.49 213.166L236.535 214.211L240.485 218.161L240.941 218.617L241.544 218.39C251.192 214.762 261.933 214.133 272.18 217.62L272.337 217.674H272.373C273.373 217.938 274.304 217.779 275.055 217.313C275.823 216.837 276.343 216.08 276.59 215.276C276.838 214.472 276.834 213.553 276.466 212.728C276.088 211.882 275.359 211.207 274.307 210.881C261.36 206.582 248.252 207.708 236.849 212.584Z" fill="black" stroke="black" stroke-width="2"/>
<path d="M207.625 276.977L207.625 276.977L207.634 276.975C209.53 276.613 210.811 274.775 210.449 272.839L210.448 272.835C209.682 268.831 209.409 264.873 209.624 261.09L209.625 261.077L209.625 261.064C209.791 255.621 210.983 250.431 212.98 245.616L213.236 244.999L212.763 244.526L208.983 240.746L207.973 239.736L207.369 241.031C202.735 250.972 201.02 262.4 203.506 274.174C203.885 276.075 205.718 277.325 207.625 276.977Z" fill="black" stroke="black" stroke-width="2"/>
<path d="M183.479 275.757V275.758L183.497 275.851C183.961 278.274 186.303 279.866 188.731 279.416L188.738 279.415C191.146 278.951 192.752 276.623 192.302 274.182L192.301 274.177C191.255 268.641 190.872 263.181 191.157 257.957L191.158 257.945L191.158 257.933C191.453 248.306 194.049 239.235 198.362 231.112L198.709 230.459L198.186 229.936L193.176 224.926L192.249 223.999L191.6 225.138C183.205 239.875 179.639 257.505 183.479 275.757Z" fill="black" stroke="black" stroke-width="2"/>
<path d="M276.829 197.742V197.772L277.537 197.988C278.89 198.402 280.133 198.206 281.122 197.592C282.089 196.991 282.752 196.032 283.069 195.002C283.385 193.973 283.377 192.807 282.915 191.767C282.444 190.706 281.53 189.848 280.185 189.43C259.076 182.424 237.682 185.961 220.283 196.169L219.167 196.824L220.082 197.739L225.212 202.869L225.741 203.398L226.398 203.04C241.536 194.785 259.648 192.119 276.829 197.742Z" fill="black" stroke="black" stroke-width="2"/>
<path d="M160.089 278.26C160.689 281.31 163.639 283.32 166.699 282.75C169.739 282.16 171.779 279.22 171.199 276.13C169.789 268.69 169.269 261.35 169.669 254.33C169.669 254.33 169.669 254.31 169.669 254.3C170.109 239.88 174.389 226.38 181.409 214.58L173.329 206.5C160.359 227.01 154.559 252.16 160.089 278.26Z" fill="black"/>
<path d="M292.607 165.822C292.037 164.532 290.937 163.482 289.317 162.932C289.267 162.902 289.217 162.882 289.157 162.862C257.577 152.392 225.507 159.582 200.977 177.232L209.097 185.352C231.077 170.412 259.277 164.652 285.777 173.682C285.787 173.682 285.797 173.682 285.807 173.692C287.527 174.222 289.097 173.972 290.337 173.202C291.557 172.452 292.397 171.232 292.797 169.922C293.197 168.612 293.187 167.132 292.607 165.822Z" fill="black"/>
<path d="M189 192.992L232.431 236.424" stroke="white" stroke-width="16.739" stroke-linecap="round" stroke-linejoin="round"/>
<path d="M269.501 274.498C276.148 267.85 276.148 257.072 269.501 250.424C262.853 243.777 252.075 243.777 245.427 250.424C238.78 257.072 238.78 267.85 245.427 274.498C252.075 281.145 262.853 281.145 269.501 274.498Z" fill="white"/>
</g>
<defs>
<radialGradient id="paint0_diamond_3279_44563" cx="0" cy="0" r="1" gradientUnits="userSpaceOnUse" gradientTransform="translate(437.8 148.23) rotate(90) scale(26.0191 22.6033)">
<stop stop-color="white"/>
<stop offset="0.73275" stop-color="#666666" stop-opacity="0"/>
</radialGradient>
<radialGradient id="paint1_diamond_3279_44563" cx="0" cy="0" r="1" gradientUnits="userSpaceOnUse" gradientTransform="translate(546.981 533.95) rotate(90) scale(14.0201 12.1796)">
<stop stop-color="white"/>
<stop offset="0.73275" stop-color="#666666" stop-opacity="0"/>
</radialGradient>
<radialGradient id="paint2_diamond_3279_44563" cx="0" cy="0" r="1" gradientUnits="userSpaceOnUse" gradientTransform="translate(398.762 365.082) rotate(90) scale(21.0433 18.2807)">
<stop stop-color="white"/>
<stop offset="0.73275" stop-color="#666666" stop-opacity="0"/>
</radialGradient>
<radialGradient id="paint3_radial_3279_44563" cx="0" cy="0" r="1" gradientUnits="userSpaceOnUse" gradientTransform="translate(64.2296 65.1358) rotate(47.0889) scale(788.893 793.672)">
<stop stop-color="#363636"/>
<stop offset="1" stop-color="#1A1A1A" stop-opacity="0.27"/>
</radialGradient>
<linearGradient id="paint4_linear_3279_44563" x1="563.555" y1="-21.7929" x2="9.94678" y2="849.273" gradientUnits="userSpaceOnUse">
<stop stop-color="#A566FF"/>
<stop offset="0.260978" stop-color="#15E8FF"/>
<stop offset="0.483589" stop-color="#2B77EA"/>
<stop offset="1" stop-opacity="0"/>
</linearGradient>
<linearGradient id="paint5_linear_3279_44563" x1="-3.92909e-07" y1="25.8919" x2="766.177" y2="211.135" gradientUnits="userSpaceOnUse">
<stop stop-color="white"/>
<stop offset="0.325893" stop-color="white" stop-opacity="0.256139"/>
<stop offset="0.695684" stop-color="white" stop-opacity="0.735087"/>
<stop offset="1" stop-color="white" stop-opacity="0.07"/>
</linearGradient>
<radialGradient id="paint6_diamond_3279_44563" cx="0" cy="0" r="1" gradientUnits="userSpaceOnUse" gradientTransform="translate(146.019 626.019) rotate(90) scale(26.0191 22.6033)">
<stop stop-color="white"/>
<stop offset="0.73275" stop-color="#666666" stop-opacity="0"/>
</radialGradient>
<radialGradient id="paint7_diamond_3279_44563" cx="0" cy="0" r="1" gradientUnits="userSpaceOnUse" gradientTransform="translate(114.02 172.02) rotate(90) scale(14.0201 12.1796)">
<stop stop-color="white"/>
<stop offset="0.73275" stop-color="#666666" stop-opacity="0"/>
</radialGradient>
<radialGradient id="paint8_diamond_3279_44563" cx="0" cy="0" r="1" gradientUnits="userSpaceOnUse" gradientTransform="translate(559.019 94.0191) rotate(90) scale(26.0191 22.6033)">
<stop stop-color="white"/>
<stop offset="0.73275" stop-color="#666666" stop-opacity="0"/>
</radialGradient>
<radialGradient id="paint9_diamond_3279_44563" cx="0" cy="0" r="1" gradientUnits="userSpaceOnUse" gradientTransform="translate(370.019 574.019) rotate(90) scale(26.0191 22.6033)">
<stop stop-color="white"/>
<stop offset="0.73275" stop-color="#666666" stop-opacity="0"/>
</radialGradient>
<radialGradient id="paint10_diamond_3279_44563" cx="0" cy="0" r="1" gradientUnits="userSpaceOnUse" gradientTransform="translate(242.019 70.0191) rotate(90) scale(26.0191 22.6033)">
<stop stop-color="white"/>
<stop offset="0.73275" stop-color="#666666" stop-opacity="0"/>
</radialGradient>
<radialGradient id="paint11_diamond_3279_44563" cx="0" cy="0" r="1" gradientUnits="userSpaceOnUse" gradientTransform="translate(587.747 547.739) rotate(90) scale(14.0201 12.1796)">
<stop stop-color="white"/>
<stop offset="0.73275" stop-color="#666666" stop-opacity="0"/>
</radialGradient>
<radialGradient id="paint12_diamond_3279_44563" cx="0" cy="0" r="1" gradientUnits="userSpaceOnUse" gradientTransform="translate(158.02 377.02) rotate(90) scale(14.0201 12.1796)">
<stop stop-color="white"/>
<stop offset="0.73275" stop-color="#666666" stop-opacity="0"/>
</radialGradient>
<radialGradient id="paint13_diamond_3279_44563" cx="0" cy="0" r="1" gradientUnits="userSpaceOnUse" gradientTransform="translate(459.95 385.785) rotate(90) scale(21.0433 18.2807)">
<stop stop-color="white"/>
<stop offset="0.73275" stop-color="#666666" stop-opacity="0"/>
</radialGradient>
<linearGradient id="paint14_linear_3279_44563" x1="318.467" y1="340.152" x2="577.267" y2="584.392" gradientUnits="userSpaceOnUse">
<stop/>
<stop offset="1" stop-opacity="0.13"/>
</linearGradient>
<clipPath id="clip0_3279_44563">
<rect width="424.45" height="426.43" fill="white" transform="translate(158 158)"/>
</clipPath>
</defs>
</svg>
