<svg width="42" height="43" viewBox="0 0 42 43" fill="none" xmlns="http://www.w3.org/2000/svg">
<g id="BellRinging">
<path id="Vector" d="M11.2554 21.7607C10.9144 20.5592 10.8138 19.3024 10.9593 18.062C11.1049 16.8217 11.4938 15.6221 12.1038 14.5318C12.7138 13.4415 13.533 12.4818 14.5146 11.7075C15.4961 10.9332 16.6208 10.3594 17.8245 10.019C19.0282 9.67864 20.2873 9.57823 21.5298 9.72356C22.7724 9.86888 23.9741 10.2571 25.0664 10.866C26.1586 11.4749 27.12 12.2926 27.8957 13.2724C28.6714 14.2523 29.2462 15.375 29.5872 16.5765V16.5765C30.8819 21.1386 32.5916 23.5184 33.8465 24.7329C33.9799 24.8623 34.0769 25.0244 34.1277 25.203C34.1786 25.3816 34.1815 25.5704 34.1363 25.7505C34.091 25.9306 33.9991 26.0957 33.8699 26.2292C33.7406 26.3627 33.5784 26.4599 33.3996 26.5111L13.2295 32.2152C13.0504 32.2652 12.8612 32.2673 12.681 32.2213C12.5008 32.1754 12.3358 32.0829 12.2027 31.9533C12.0695 31.8237 11.9728 31.6614 11.9223 31.4827C11.8717 31.304 11.8691 31.1152 11.9147 30.9351C12.3449 29.2441 12.5501 26.3228 11.2554 21.7607Z" stroke="#A566FF" stroke-width="2.08599" stroke-linecap="round" stroke-linejoin="round"/>
<path id="Vector_2" d="M19.2295 30.5184L19.5188 31.5379C19.8258 32.6194 20.5505 33.5349 21.5337 34.083C22.5168 34.6311 23.6778 34.7668 24.7612 34.4604C25.8447 34.1541 26.7618 33.4306 27.3108 32.4492C27.8599 31.4678 27.9959 30.3089 27.689 29.2274L27.3997 28.2079" stroke="#A566FF" stroke-width="2.08599" stroke-linecap="round" stroke-linejoin="round"/>
<path id="Vector_3" d="M24.6138 4.93285C27.2558 5.70369 29.6289 7.19756 31.4642 9.2453" stroke="#A566FF" stroke-width="2.08599" stroke-linecap="round" stroke-linejoin="round"/>
<path id="Vector_4" d="M5.80492 16.5017C6.29156 13.7973 7.52704 11.283 9.37145 9.24337" stroke="#A566FF" stroke-width="2.08599" stroke-linecap="round" stroke-linejoin="round"/>
</g>
</svg>
