<svg width="24" height="24" viewBox="0 0 24 24" fill="none" xmlns="http://www.w3.org/2000/svg">
<g id="Warstwa_1">
<path id="Vector" d="M21.0683 20.5691C21.1827 20.5816 21.2524 20.5878 21.3216 20.597C21.7298 20.6509 21.9868 20.9024 21.9996 21.2594C22.0126 21.6254 21.7334 21.9426 21.3225 21.9759C20.9468 22.0064 20.5675 21.9976 20.1898 21.9974C14.4501 21.9951 8.71042 21.992 2.97072 21.9848C2.78496 21.9845 2.58657 21.9713 2.41631 21.9062C2.11203 21.7897 1.97044 21.5287 2.00513 21.2114C2.03938 20.8981 2.21835 20.6758 2.54608 20.6104C2.65668 20.5884 2.77065 20.5833 2.92551 20.5656C2.92551 20.1776 2.9255 19.8035 2.92552 19.4293C2.92558 18.3549 2.9187 17.2805 2.92819 16.2062C2.93442 15.5011 3.39696 15.0324 4.10109 15.022C4.98734 15.0089 5.87394 15.0135 6.76033 15.0191C7.59328 15.0243 8.04329 15.4717 8.04975 16.3177C8.05928 17.5663 8.05236 18.8149 8.05244 20.0635C8.05245 20.2207 8.05244 20.3779 8.05244 20.5647H9.44867C9.44867 20.3906 9.44867 20.2233 9.44867 20.0559C9.44868 17.9072 9.44744 15.7584 9.44927 13.6096C9.4501 12.6303 9.84587 12.2322 10.8177 12.2295C11.646 12.2271 12.4744 12.2232 13.3026 12.231C14.1019 12.2385 14.5404 12.6735 14.5427 13.4748C14.5488 15.6526 14.545 17.8304 14.5451 20.0082C14.5451 20.1802 14.5451 20.3522 14.5451 20.5588H15.9158C15.924 20.4009 15.9402 20.2343 15.9402 20.0677C15.9417 16.7139 15.941 13.3601 15.9416 10.0063C15.9418 8.90882 16.3464 8.50036 17.4292 8.50013C18.1558 8.49997 18.8824 8.49994 19.609 8.50014C20.6494 8.50042 21.0681 8.91257 21.0682 9.93789C21.0684 13.3062 21.0683 16.6746 21.0683 20.0429L21.0683 20.5691ZM19.6402 20.5612V9.92722H17.3741V20.5612H19.6402ZM10.8771 13.6464V20.5532H13.1252V13.6464H10.8771ZM4.3539 16.429V20.5448H6.62149V16.429H4.3539Z" fill="white"/>
<path id="Vector_2" d="M17.2738 3.57974C16.9729 3.60345 16.6722 3.63418 16.3708 3.64917C15.9485 3.67016 15.6401 3.43592 15.5817 3.06375C15.5253 2.70406 15.7708 2.35105 16.1827 2.29591C17.0741 2.17659 17.9687 2.07361 18.865 2.00258C19.2379 1.97304 19.5232 2.19887 19.5729 2.57721C19.6862 3.43955 19.774 4.30589 19.8455 5.17281C19.8869 5.67534 19.6378 5.96665 19.214 5.98818C18.7898 6.00974 18.5164 5.74947 18.457 5.26402C18.4315 5.05579 18.411 4.84695 18.3866 4.62294C14.8309 8.02944 10.4928 9.63273 5.80575 10.4868C5.52074 10.5387 5.23097 10.5742 4.94186 10.5918C4.47539 10.6202 4.17516 10.3857 4.13704 9.98948C4.09595 9.56236 4.35663 9.28606 4.8228 9.19849C6.00394 8.97661 7.20056 8.80552 8.35694 8.4897C11.1742 7.7203 13.8401 6.60147 16.1523 4.76721C16.5688 4.4368 16.9367 4.0452 17.327 3.68185C17.3093 3.64782 17.2916 3.61378 17.2738 3.57974Z" fill="white"/>
</g>
</svg>
