<svg width="11" height="11" viewBox="0 0 11 11" fill="none" xmlns="http://www.w3.org/2000/svg">
<path d="M5.78125 3.71875V5.78125" stroke="white" stroke-width="0.515625" stroke-linecap="round" stroke-linejoin="round"/>
<path d="M7.56875 6.8125L5.78125 5.78125" stroke="white" stroke-width="0.515625" stroke-linecap="round" stroke-linejoin="round"/>
<path d="M8.19531 4.56641H9.91406V2.84766" stroke="white" stroke-width="0.515625" stroke-linecap="round" stroke-linejoin="round"/>
<path d="M8.45609 8.45391C7.92739 8.98303 7.25365 9.34347 6.52007 9.48962C5.7865 9.63577 5.02605 9.56107 4.33494 9.27497C3.64383 8.98886 3.0531 8.50421 2.63747 7.88232C2.22184 7.26043 2 6.52924 2 5.78125C2 5.03326 2.22184 4.30207 2.63747 3.68018C3.0531 3.05829 3.64383 2.57364 4.33494 2.28754C5.02605 2.00143 5.7865 1.92673 6.52007 2.07288C7.25365 2.21903 7.92739 2.57947 8.45609 3.1086L9.91703 4.56524" stroke="white" stroke-width="0.515625" stroke-linecap="round" stroke-linejoin="round"/>
</svg>
