<svg width="26" height="26" viewBox="0 0 26 26" fill="none" xmlns="http://www.w3.org/2000/svg">
<g filter="url(#filter0_i_1087_5407)">
<circle cx="13" cy="13" r="12" fill="#2B282E"/>
</g>
<circle cx="13" cy="13" r="12" stroke="url(#paint0_linear_1087_5407)"/>
<path d="M10.5278 6.38889C10.5278 6.14343 10.3288 5.94444 10.0833 5.94444C9.83787 5.94444 9.63889 6.14343 9.63889 6.38889H10.5278ZM9.63889 17.2778C9.63889 17.5232 9.83787 17.7222 10.0833 17.7222C10.3288 17.7222 10.5278 17.5232 10.5278 17.2778H9.63889ZM6 8.27778C5.75454 8.27778 5.55556 8.47676 5.55556 8.72222C5.55556 8.96768 5.75454 9.16667 6 9.16667L6 8.27778ZM7.75 9.16667C7.99546 9.16667 8.19444 8.96768 8.19444 8.72222C8.19444 8.47676 7.99546 8.27778 7.75 8.27778V9.16667ZM6 10.6111C5.75454 10.6111 5.55556 10.8101 5.55556 11.0556C5.55556 11.301 5.75454 11.5 6 11.5V10.6111ZM7.75 11.5C7.99546 11.5 8.19444 11.301 8.19444 11.0556C8.19444 10.8101 7.99546 10.6111 7.75 10.6111V11.5ZM6 12.9444C5.75454 12.9444 5.55556 13.1434 5.55556 13.3889C5.55556 13.6343 5.75454 13.8333 6 13.8333V12.9444ZM7.75 13.8333C7.99546 13.8333 8.19444 13.6343 8.19444 13.3889C8.19444 13.1434 7.99546 12.9444 7.75 12.9444L7.75 13.8333ZM15.3333 19.6667C15.5788 19.6667 15.7778 19.4677 15.7778 19.2222C15.7778 18.9768 15.5788 18.7778 15.3333 18.7778V19.6667ZM10.6667 18.7778C10.4212 18.7778 10.2222 18.9768 10.2222 19.2222C10.2222 19.4677 10.4212 19.6667 10.6667 19.6667V18.7778ZM9.63889 6.38889L9.63889 17.2778H10.5278L10.5278 6.38889H9.63889ZM6.58333 6.44444L19.4167 6.44444V5.55556L6.58333 5.55556V6.44444ZM19.4167 6.44444C19.4934 6.44444 19.5556 6.50663 19.5556 6.58333L20.4444 6.58333C20.4444 6.01571 19.9843 5.55556 19.4167 5.55556V6.44444ZM19.5556 6.58333V17.0833H20.4444V6.58333L19.5556 6.58333ZM19.5556 17.0833C19.5556 17.16 19.4934 17.2222 19.4167 17.2222V18.1111C19.9843 18.1111 20.4444 17.651 20.4444 17.0833H19.5556ZM19.4167 17.2222H6.58333V18.1111H19.4167V17.2222ZM6.58333 17.2222C6.50663 17.2222 6.44444 17.16 6.44444 17.0833H5.55556C5.55556 17.651 6.01571 18.1111 6.58333 18.1111V17.2222ZM6.44444 17.0833L6.44444 6.58333H5.55556L5.55556 17.0833H6.44444ZM6.44444 6.58333C6.44444 6.50663 6.50663 6.44444 6.58333 6.44444V5.55556C6.01571 5.55556 5.55556 6.01571 5.55556 6.58333H6.44444ZM6 9.16667H7.75V8.27778H6L6 9.16667ZM6 11.5H7.75V10.6111H6V11.5ZM6 13.8333H7.75L7.75 12.9444H6V13.8333ZM12.5556 18.0556V18.8333H13.4444V18.0556H12.5556ZM15.3333 18.7778H10.6667V19.6667H15.3333V18.7778Z" fill="url(#paint1_linear_1087_5407)"/>
<defs>
<filter id="filter0_i_1087_5407" x="0.5" y="0.5" width="25" height="25" filterUnits="userSpaceOnUse" color-interpolation-filters="sRGB">
<feFlood flood-opacity="0" result="BackgroundImageFix"/>
<feBlend mode="normal" in="SourceGraphic" in2="BackgroundImageFix" result="shape"/>
<feColorMatrix in="SourceAlpha" type="matrix" values="0 0 0 0 0 0 0 0 0 0 0 0 0 0 0 0 0 0 127 0" result="hardAlpha"/>
<feOffset/>
<feGaussianBlur stdDeviation="7.80387"/>
<feComposite in2="hardAlpha" operator="arithmetic" k2="-1" k3="1"/>
<feColorMatrix type="matrix" values="0 0 0 0 0 0 0 0 0 0 0 0 0 0 0 0 0 0 1 0"/>
<feBlend mode="normal" in2="shape" result="effect1_innerShadow_1087_5407"/>
</filter>
<linearGradient id="paint0_linear_1087_5407" x1="15.2687" y1="16.7058" x2="21.3191" y2="24.1176" gradientUnits="userSpaceOnUse">
<stop offset="0.0169549" stop-color="#A566FF"/>
<stop offset="1" stop-color="#15E8FF"/>
</linearGradient>
<linearGradient id="paint1_linear_1087_5407" x1="0.222222" y1="1.31713" x2="21.2396" y2="3.65086" gradientUnits="userSpaceOnUse">
<stop stop-color="#A566FF"/>
<stop offset="1" stop-color="#15E8FF"/>
</linearGradient>
</defs>
</svg>
