<svg width="15" height="10" viewBox="0 0 15 10" fill="none" xmlns="http://www.w3.org/2000/svg">
<rect x="0.870248" y="0.126168" width="5.01501" height="9.62807" rx="1.16722" fill="#A566FF" stroke="#A566FF" stroke-width="0.259382"/>
<rect x="1.68035" y="0.886527" width="3.39505" height="8.18248" rx="0.389073" fill="#A166FF"/>
<rect x="1.68035" y="0.886527" width="3.39505" height="8.18248" rx="0.389073" fill="white"/>
<rect x="1.68035" y="0.886527" width="3.39505" height="8.18248" rx="0.389073" stroke="white" stroke-width="0.259382"/>
<rect x="14.0676" y="1.91924" width="6.269" height="8.18248" rx="0.907837" transform="rotate(90 14.0676 1.91924)" fill="#A566FF" stroke="#A566FF" stroke-width="0.259382"/>
<rect x="13.2914" y="2.71856" width="4.67056" height="6.64964" rx="0.389073" transform="rotate(90 13.2914 2.71856)" fill="white" stroke="white" stroke-width="0.259382"/>
<rect x="-0.129691" y="-0.129691" width="0.362745" height="5.0677" rx="0.181372" transform="matrix(4.37114e-08 -1 -1 -4.37114e-08 12.0888 9.66835)" fill="#A566FF" stroke="#A566FF" stroke-width="0.259382"/>
<rect x="-0.129691" y="0.129691" width="0.362745" height="1.21704" rx="0.181372" transform="matrix(-1 8.74228e-08 8.74228e-08 1 11.2009 8.07568)" fill="#A566FF" stroke="#A566FF" stroke-width="0.259382"/>
<rect x="-0.129691" y="0.129691" width="0.362745" height="1.21704" rx="0.181372" transform="matrix(-1 8.74228e-08 8.74228e-08 1 8.34859 8.07568)" fill="#A566FF" stroke="#A566FF" stroke-width="0.259382"/>
<rect x="-0.129691" y="-0.129691" width="0.362745" height="1.79894" rx="0.181372" transform="matrix(1.19249e-08 -1 -1 -1.19249e-08 4.14748 2.15224)" fill="#A566FF" stroke="#A566FF" stroke-width="0.259382"/>
<rect x="-0.129691" y="-0.129691" width="0.362745" height="1.79894" rx="0.181372" transform="matrix(1.19249e-08 -1 -1 -1.19249e-08 4.14748 2.95156)" fill="#A566FF" stroke="#A566FF" stroke-width="0.259382"/>
<circle cx="3.37764" cy="4.21272" r="0.426292" fill="#A566FF" stroke="#A566FF" stroke-width="0.259382"/>
</svg>
