<svg width="76" height="58" viewBox="0 0 76 58" fill="none" xmlns="http://www.w3.org/2000/svg">
<rect x="1.32085" y="1.20537" width="28.0841" height="53.9172" rx="6.53642" stroke="url(#paint0_linear_4490_3561)" stroke-width="1.45254"/>
<g filter="url(#filter0_d_4490_3561)">
<rect x="5.85688" y="5.46602" width="19.0123" height="45.8219" rx="2.17881" stroke="url(#paint1_linear_4490_3561)" stroke-width="1.45254" shape-rendering="crispEdges"/>
</g>
<rect x="75.2264" y="11.2468" width="35.1064" height="45.8219" rx="5.08388" transform="rotate(90 75.2264 11.2468)" stroke="url(#paint2_linear_4490_3561)" stroke-width="1.45254"/>
<rect x="70.8787" y="15.7224" width="26.1551" height="37.238" rx="2.17881" transform="rotate(90 70.8787 15.7224)" stroke="url(#paint3_linear_4490_3561)" stroke-width="1.45254"/>
<rect x="-0.726269" y="-0.726269" width="2.03137" height="28.3791" rx="1.01569" transform="matrix(4.37114e-08 -1 -1 -4.37114e-08 64.1451 54.6432)" stroke="url(#paint4_linear_4490_3561)" stroke-width="1.45254"/>
<rect x="-0.726269" y="0.726269" width="2.03137" height="6.81542" rx="1.01569" transform="matrix(-1 8.74228e-08 8.74228e-08 1 59.1729 45.7227)" stroke="url(#paint5_linear_4490_3561)" stroke-width="1.45254"/>
<rect x="-0.726269" y="0.726269" width="2.03137" height="6.81542" rx="1.01569" transform="matrix(-1 8.74228e-08 8.74228e-08 1 43.1993 45.7227)" stroke="url(#paint6_linear_4490_3561)" stroke-width="1.45254"/>
<rect x="-0.726269" y="-0.726269" width="2.03137" height="10.0741" rx="1.01569" transform="matrix(1.19249e-08 -1 -1 -1.19249e-08 19.6737 12.5519)" stroke="url(#paint7_linear_4490_3561)" stroke-width="1.45254"/>
<rect x="-0.726269" y="-0.726269" width="2.03137" height="10.0741" rx="1.01569" transform="matrix(1.19249e-08 -1 -1 -1.19249e-08 19.6737 17.0274)" stroke="url(#paint8_linear_4490_3561)" stroke-width="1.45254"/>
<circle cx="15.363" cy="24.091" r="2.38724" stroke="url(#paint9_linear_4490_3561)" stroke-width="1.45254"/>
<defs>
<filter id="filter0_d_4490_3561" x="2.22554" y="4.73975" width="26.275" height="53.0846" filterUnits="userSpaceOnUse" color-interpolation-filters="sRGB">
<feFlood flood-opacity="0" result="BackgroundImageFix"/>
<feColorMatrix in="SourceAlpha" type="matrix" values="0 0 0 0 0 0 0 0 0 0 0 0 0 0 0 0 0 0 127 0" result="hardAlpha"/>
<feOffset dy="2.90508"/>
<feGaussianBlur stdDeviation="1.45254"/>
<feComposite in2="hardAlpha" operator="out"/>
<feColorMatrix type="matrix" values="0 0 0 0 0 0 0 0 0 0 0 0 0 0 0 0 0 0 0.25 0"/>
<feBlend mode="normal" in2="BackgroundImageFix" result="effect1_dropShadow_4490_3561"/>
<feBlend mode="normal" in="SourceGraphic" in2="effect1_dropShadow_4490_3561" result="shape"/>
</filter>
<linearGradient id="paint0_linear_4490_3561" x1="5.06472" y1="13.9245" x2="25.3172" y2="14.8966" gradientUnits="userSpaceOnUse">
<stop stop-color="#A566FF"/>
<stop offset="0.536458" stop-color="#58ACFF"/>
<stop offset="0.911938" stop-color="#15E8FF"/>
</linearGradient>
<linearGradient id="paint1_linear_4490_3561" x1="7.44947" y1="15.5462" x2="23.0222" y2="16.1837" gradientUnits="userSpaceOnUse">
<stop stop-color="#A566FF"/>
<stop offset="0.536458" stop-color="#58ACFF"/>
<stop offset="0.911938" stop-color="#15E8FF"/>
</linearGradient>
<linearGradient id="paint2_linear_4490_3561" x1="80.0951" y1="21.327" x2="107.813" y2="23.3539" gradientUnits="userSpaceOnUse">
<stop stop-color="#A566FF"/>
<stop offset="0.536458" stop-color="#58ACFF"/>
<stop offset="0.911938" stop-color="#15E8FF"/>
</linearGradient>
<linearGradient id="paint3_linear_4490_3561" x1="74.7332" y1="23.8404" x2="95.681" y2="25.2538" gradientUnits="userSpaceOnUse">
<stop stop-color="#A566FF"/>
<stop offset="0.536458" stop-color="#58ACFF"/>
<stop offset="0.911938" stop-color="#15E8FF"/>
</linearGradient>
<linearGradient id="paint4_linear_4490_3561" x1="0.39476" y1="6.81922" x2="3.04995" y2="6.84855" gradientUnits="userSpaceOnUse">
<stop stop-color="#A566FF"/>
<stop offset="0.536458" stop-color="#58ACFF"/>
<stop offset="0.911938" stop-color="#15E8FF"/>
</linearGradient>
<linearGradient id="paint5_linear_4490_3561" x1="-9.01599" y1="2.28132" x2="-5.09232" y2="-1.03256" gradientUnits="userSpaceOnUse">
<stop stop-color="#A566FF"/>
<stop offset="0.536458" stop-color="#58ACFF"/>
<stop offset="0.911938" stop-color="#15E8FF"/>
</linearGradient>
<linearGradient id="paint6_linear_4490_3561" x1="-9.01599" y1="2.28132" x2="-5.09232" y2="-1.03256" gradientUnits="userSpaceOnUse">
<stop stop-color="#A566FF"/>
<stop offset="0.536458" stop-color="#58ACFF"/>
<stop offset="0.911938" stop-color="#15E8FF"/>
</linearGradient>
<linearGradient id="paint7_linear_4490_3561" x1="-9.01599" y1="3.18045" x2="-4.09832" y2="0.201239" gradientUnits="userSpaceOnUse">
<stop stop-color="#A566FF"/>
<stop offset="0.536458" stop-color="#58ACFF"/>
<stop offset="0.911938" stop-color="#15E8FF"/>
</linearGradient>
<linearGradient id="paint8_linear_4490_3561" x1="-9.01599" y1="3.18045" x2="-4.09832" y2="0.201239" gradientUnits="userSpaceOnUse">
<stop stop-color="#A566FF"/>
<stop offset="0.536458" stop-color="#58ACFF"/>
<stop offset="0.911938" stop-color="#15E8FF"/>
</linearGradient>
<linearGradient id="paint9_linear_4490_3561" x1="-3.86533" y1="22.6957" x2="-1.47058" y2="17.8958" gradientUnits="userSpaceOnUse">
<stop stop-color="#A566FF"/>
<stop offset="0.536458" stop-color="#58ACFF"/>
<stop offset="0.911938" stop-color="#15E8FF"/>
</linearGradient>
</defs>
</svg>
