<svg width="16" height="16" viewBox="0 0 16 16" fill="none" xmlns="http://www.w3.org/2000/svg">
<path d="M12.3606 4.3125L5.95673 4.3125C5.04865 4.3125 4.3125 5.04865 4.3125 5.95673L4.3125 12.3606C4.3125 13.2687 5.04865 14.0048 5.95673 14.0048L12.3606 14.0048C13.2687 14.0048 14.0048 13.2687 14.0048 12.3606L14.0048 5.95673C14.0048 5.04865 13.2687 4.3125 12.3606 4.3125Z" stroke="white" stroke-width="1.1875" stroke-linejoin="round"/>
<path d="M11.6779 4.30769L11.6923 3.61538C11.6911 3.18733 11.5205 2.77716 11.2178 2.47448C10.9151 2.1718 10.505 2.00122 10.0769 2H3.84615C3.35697 2.00145 2.88823 2.19641 2.54232 2.54232C2.19642 2.88823 2.00145 3.35697 2 3.84615V10.0769C2.00122 10.505 2.1718 10.9151 2.47448 11.2178C2.77716 11.5205 3.18733 11.6911 3.61538 11.6923H4.30769" stroke="white" stroke-width="1.1875" stroke-linecap="round" stroke-linejoin="round"/>
</svg>
