<svg width="16" height="16" viewBox="0 0 16 16" fill="none" xmlns="http://www.w3.org/2000/svg">
<path d="M14 11.0794V4.91687C13.9995 4.82786 13.9756 4.74054 13.9306 4.66373C13.8856 4.58692 13.8212 4.52333 13.7437 4.47937L8.24375 1.38563C8.16964 1.34284 8.08557 1.32031 8 1.32031C7.91443 1.32031 7.83036 1.34284 7.75625 1.38563L2.25625 4.47937C2.17884 4.52333 2.1144 4.58692 2.06941 4.66373C2.02442 4.74054 2.00048 4.82786 2 4.91687V11.0794C2.00048 11.1684 2.02442 11.2557 2.06941 11.3325C2.1144 11.4093 2.17884 11.4729 2.25625 11.5169L7.75625 14.6106C7.83036 14.6534 7.91443 14.6759 8 14.6759C8.08557 14.6759 8.16964 14.6534 8.24375 14.6106L13.7437 11.5169C13.8212 11.4729 13.8856 11.4093 13.9306 11.3325C13.9756 11.2557 13.9995 11.1684 14 11.0794V11.0794Z" stroke="#A566FF" stroke-width="1.2" stroke-linecap="round" stroke-linejoin="round"/>
<path d="M13.9328 4.66406L8.05781 8.00156L2.07031 4.66406" stroke="#A566FF" stroke-width="1.2" stroke-linecap="round" stroke-linejoin="round"/>
<path d="M8.05625 8L8 14.675" stroke="#A566FF" stroke-width="1.2" stroke-linecap="round" stroke-linejoin="round"/>
</svg>
