<svg width="28" height="28" viewBox="0 0 28 28" fill="none" xmlns="http://www.w3.org/2000/svg">
<g filter="url(#filter0_i_1087_2751)">
<circle cx="13.9964" cy="14.0003" r="12.973" fill="#2B282E"/>
</g>
<circle cx="13.9964" cy="14.0003" r="12.973" stroke="url(#paint0_linear_1087_2751)" stroke-width="0.540541"/>
<path d="M12 15.625C12.3452 15.625 12.625 15.3452 12.625 15C12.625 14.6548 12.3452 14.375 12 14.375C11.6548 14.375 11.375 14.6548 11.375 15C11.375 15.3452 11.6548 15.625 12 15.625Z" fill="white"/>
<path d="M16 15.625C16.3452 15.625 16.625 15.3452 16.625 15C16.625 14.6548 16.3452 14.375 16 14.375C15.6548 14.375 15.375 14.6548 15.375 15C15.375 15.3452 15.6548 15.625 16 15.625Z" fill="white"/>
<path d="M10.6463 11.0016C11.7302 10.6619 12.8605 10.4932 13.9963 10.5016C15.1322 10.4932 16.2624 10.6619 17.3463 11.0016M17.3463 17.0016C16.2624 17.3413 15.1322 17.51 13.9963 17.5016C12.8605 17.51 11.7302 17.3413 10.6463 17.0016M15.6838 17.3828L16.4401 18.8828C16.4887 18.9851 16.5715 19.0673 16.6741 19.1152C16.7768 19.1631 16.8929 19.1737 17.0026 19.1453C18.5338 18.7703 19.8588 18.1203 20.8213 17.2828C20.8939 17.2188 20.9466 17.1353 20.9732 17.0423C20.9998 16.9492 20.9991 16.8505 20.9713 16.7578L18.8526 9.68282C18.832 9.61041 18.7946 9.54386 18.7436 9.4885C18.6926 9.43314 18.6293 9.39052 18.5588 9.36407C17.9602 9.11849 17.3412 8.92608 16.7088 8.78907C16.5873 8.76245 16.4602 8.78151 16.3519 8.84261C16.2435 8.90371 16.1614 9.00256 16.1213 9.12032L15.6276 10.6141M12.3088 17.3828L11.5526 18.8828C11.5039 18.9851 11.4211 19.0673 11.3185 19.1152C11.2159 19.1631 11.0997 19.1737 10.9901 19.1453C9.45882 18.7703 8.13382 18.1203 7.17132 17.2828C7.09876 17.2188 7.04606 17.1353 7.01948 17.0423C6.99289 16.9492 6.99353 16.8505 7.02132 16.7578L9.14007 9.68282C9.16069 9.61041 9.19801 9.54386 9.24903 9.4885C9.30005 9.43314 9.36334 9.39052 9.43382 9.36407C10.0324 9.11849 10.6515 8.92608 11.2838 8.78907C11.4053 8.76245 11.5324 8.78151 11.6408 8.84261C11.7491 8.90371 11.8312 9.00256 11.8713 9.12032L12.3651 10.6141" stroke="white" stroke-width="1.5" stroke-linecap="round" stroke-linejoin="round"/>
<defs>
<filter id="filter0_i_1087_2751" x="0.75" y="0.757812" width="26.4922" height="26.4844" filterUnits="userSpaceOnUse" color-interpolation-filters="sRGB">
<feFlood flood-opacity="0" result="BackgroundImageFix"/>
<feBlend mode="normal" in="SourceGraphic" in2="BackgroundImageFix" result="shape"/>
<feColorMatrix in="SourceAlpha" type="matrix" values="0 0 0 0 0 0 0 0 0 0 0 0 0 0 0 0 0 0 127 0" result="hardAlpha"/>
<feOffset/>
<feGaussianBlur stdDeviation="4.32432"/>
<feComposite in2="hardAlpha" operator="arithmetic" k2="-1" k3="1"/>
<feColorMatrix type="matrix" values="0 0 0 0 0 0 0 0 0 0 0 0 0 0 0 0 0 0 1 0"/>
<feBlend mode="normal" in2="shape" result="effect1_innerShadow_1087_2751"/>
</filter>
<linearGradient id="paint0_linear_1087_2751" x1="16.4491" y1="18.0066" x2="22.9901" y2="26.0193" gradientUnits="userSpaceOnUse">
<stop offset="0.0169549" stop-color="#A566FF"/>
<stop offset="1" stop-color="#15E8FF"/>
</linearGradient>
</defs>
</svg>
