<svg width="16" height="16" viewBox="0 0 16 16" fill="none" xmlns="http://www.w3.org/2000/svg">
<path d="M1.65584 6.17184L1.49141 6.15785L1.51228 6.32154C1.52645 6.43274 1.53901 6.54503 1.5516 6.65764C1.57949 6.907 1.60755 7.15792 1.65371 7.40198C1.83707 8.37158 2.24895 9.23778 2.91953 9.97237C3.67323 10.798 4.61338 11.2978 5.69272 11.5312C5.94307 11.5853 6.19891 11.6173 6.44741 11.6483C6.49567 11.6544 6.54365 11.6604 6.59127 11.6665C6.69227 11.6795 6.78916 11.6577 6.86613 11.6016C6.94314 11.5454 6.99126 11.4611 7.00528 11.3664C7.01968 11.2691 6.99438 11.1754 6.93166 11.1021C6.87075 11.0309 6.78326 10.9888 6.68769 10.9718C6.66193 10.9673 6.62954 10.963 6.60227 10.9595C6.58758 10.9576 6.57437 10.9558 6.56448 10.9544C6.48311 10.9422 6.40441 10.9322 6.32745 10.9224C6.16711 10.9019 6.01434 10.8825 5.86079 10.8465C4.88264 10.6175 4.10604 10.2 3.52314 9.60095C2.94019 9.00187 2.54368 8.21378 2.33786 7.23194C2.29625 7.03348 2.27404 6.83529 2.25087 6.62866C2.23976 6.52952 2.22842 6.42842 2.21463 6.32443L2.20053 6.2182L2.09377 6.20911L1.65584 6.17184Z" fill="#A166FF" stroke="#A566FF" stroke-width="0.266649"/>
<path d="M9.16192 1.68286L9.17353 1.53882H9.02902C9.02028 1.53882 9.01091 1.53876 9.0012 1.5387C8.97858 1.53855 8.95406 1.53839 8.93113 1.53896C8.19751 1.55734 7.48648 1.70017 6.81054 1.99514C5.26567 2.66932 4.29099 3.84389 3.86368 5.46243C3.79032 5.7403 3.74989 6.02967 3.71082 6.30925C3.69845 6.39775 3.68622 6.48527 3.67313 6.57113C3.65737 6.67441 3.67412 6.7748 3.72898 6.85611C3.78435 6.93818 3.87009 6.98804 3.96667 7.00351C4.06605 7.01942 4.16252 6.99547 4.23801 6.92934C4.31044 6.86589 4.35124 6.77464 4.36816 6.67617C4.37193 6.65428 4.37532 6.62966 4.37828 6.60816C4.3797 6.59786 4.38101 6.58828 4.38223 6.58006C4.39501 6.49353 4.40533 6.4099 4.41542 6.32817C4.43627 6.15928 4.45611 5.99853 4.49457 5.83715C4.71913 4.89471 5.12143 4.13748 5.69757 3.56163C6.27366 2.98582 7.03036 2.58457 7.97452 2.36479C8.20081 2.31212 8.428 2.28378 8.66562 2.25413C8.77962 2.23991 8.89603 2.22539 9.01589 2.20774L9.12083 2.19228L9.12935 2.08655L9.16192 1.68286Z" fill="#A166FF" stroke="#A566FF" stroke-width="0.266649"/>
<path d="M8.62834 4.35874C8.66113 4.3651 8.69564 4.36997 8.72585 4.37423C8.73563 4.37561 8.74495 4.37693 8.75363 4.37821C8.84218 4.3913 8.92767 4.40176 9.01117 4.41197C9.18267 4.43295 9.34571 4.45289 9.50933 4.49249C10.4478 4.71963 11.2024 5.12278 11.7762 5.6986C12.35 6.27436 12.7498 7.0295 12.9681 7.97136C13.0207 8.19789 13.0492 8.42528 13.079 8.66281C13.0933 8.77665 13.1079 8.89283 13.1256 9.01236L13.1411 9.11722L13.2468 9.12576L13.6718 9.16012L13.833 9.17315L13.8151 9.01243C13.8041 8.91395 13.7952 8.81268 13.7861 8.71015C13.7661 8.48223 13.7455 8.24804 13.7001 8.02416C13.4858 6.96564 13.0711 6.07724 12.4418 5.37781C11.8122 4.67808 10.9739 4.17429 9.92337 3.87583C9.62703 3.79163 9.31548 3.74897 9.01563 3.70791C8.92037 3.69486 8.8263 3.68198 8.73426 3.66798C8.51655 3.63486 8.34344 3.78935 8.32521 3.98519C8.30709 4.17982 8.44806 4.32379 8.62834 4.35874ZM8.62834 4.35874L8.65371 4.22786M8.62834 4.35874L8.65371 4.22786M8.65371 4.22786C8.52608 4.20311 8.44749 4.11002 8.45796 3.99754C8.46946 3.87403 8.57625 3.7788 8.71421 3.79979C8.81063 3.81445 8.90754 3.82773 9.0045 3.84102C9.30222 3.88182 9.60051 3.9227 9.88693 4.00407C11.9466 4.58925 13.1485 5.97116 13.5695 8.05062C13.6133 8.26708 13.6327 8.48847 13.6524 8.71248C13.6577 8.77226 13.6629 8.83224 13.6687 8.89235L13.6933 8.89434L13.6826 9.02723L13.5501 9.04203C13.5491 9.03343 13.5482 9.02485 13.5472 9.01629L13.2575 8.99287C13.2408 8.87976 13.2266 8.76691 13.2125 8.65463C13.1821 8.41324 13.1521 8.17446 13.098 7.94125C12.6519 6.01723 11.4569 4.82669 9.54069 4.36291C9.36961 4.3215 9.19372 4.29994 9.01784 4.27837C8.93611 4.26835 8.85438 4.25833 8.77313 4.24632C8.76263 4.24477 8.75213 4.24328 8.74162 4.2418C8.71222 4.23765 8.68282 4.2335 8.65371 4.22786Z" fill="#A566FF" stroke="#A566FF" stroke-width="0.266649"/>
<path d="M6.17184 13.6824L6.15794 13.847L6.32175 13.8258C6.43657 13.811 6.55408 13.7988 6.67266 13.7865C6.93518 13.7592 7.20293 13.7314 7.45827 13.6736C8.48225 13.4418 9.33894 13.0181 10.0125 12.3924C10.6862 11.7665 11.1704 10.9442 11.4581 9.92497C11.5402 9.63392 11.5829 9.32825 11.624 9.03386C11.6374 8.93766 11.6506 8.84267 11.6651 8.74978L11.5345 8.72953L11.6651 8.74978C11.681 8.64736 11.6599 8.54915 11.6032 8.47132C11.5468 8.39389 11.4619 8.34601 11.3677 8.33177C11.2705 8.31707 11.1766 8.34156 11.1028 8.40392C11.0312 8.4645 10.9888 8.55184 10.9716 8.64729C10.9668 8.67377 10.9628 8.70271 10.9593 8.72797C10.9578 8.7387 10.9564 8.74876 10.9551 8.75769L11.087 8.7772L10.9551 8.75769C10.9426 8.84251 10.9319 8.92515 10.9213 9.00637C10.8994 9.176 10.8782 9.33945 10.8428 9.50368C10.4459 11.3454 9.10498 12.6495 7.24937 12.9969C7.04494 13.0352 6.84094 13.0595 6.63014 13.0845C6.52993 13.0965 6.42818 13.1086 6.32412 13.1224L6.21791 13.1366L6.20889 13.2434L6.17184 13.6824Z" fill="#A566FF" stroke="#A566FF" stroke-width="0.266649"/>
<path d="M2.76879 3.64715L2.7184 3.74964L2.60939 3.71559L2.19462 3.58601L2.05019 3.54089L2.11313 3.40329C2.13229 3.36141 2.15156 3.31846 2.17108 3.27497C2.21447 3.17827 2.25906 3.0789 2.30628 2.98259C2.63259 2.31701 3.04406 1.70869 3.52989 1.15132C3.5325 1.14832 3.53518 1.14524 3.5379 1.14211C3.56128 1.11522 3.58842 1.08401 3.61781 1.05484M2.76879 3.64715L3.61781 1.05484M2.76879 3.64715C2.77265 3.6393 2.77696 3.63075 2.78146 3.62181C2.79228 3.60036 2.80424 3.57662 2.814 3.55461C3.06623 2.98541 3.38596 2.45631 3.76923 1.96546C3.83708 1.87857 3.90364 1.80066 3.97221 1.72039C4.02547 1.65804 4.07994 1.59428 4.13718 1.52378C4.26107 1.37117 4.26043 1.16111 4.11231 1.02755C4.04167 0.963855 3.95311 0.931111 3.86006 0.937853M2.76879 3.64715L3.86006 0.937853M3.61781 1.05484C3.68484 0.988326 3.76845 0.944489 3.86006 0.937853M3.61781 1.05484L3.86006 0.937853" fill="#A566FF" stroke="#A566FF" stroke-width="0.266649"/>
<path d="M11.5922 2.70509L11.6227 2.60677L11.7553 2.17924L11.8028 2.02608L11.9447 2.10077C12.0409 2.15135 12.1409 2.20091 12.2423 2.25116C12.4759 2.36692 12.7171 2.48639 12.9353 2.63074C13.3112 2.87932 13.6711 3.15314 14.0267 3.42362C14.1014 3.48046 14.1759 3.53716 14.2503 3.59344C14.3345 3.65708 14.3888 3.74342 14.4004 3.84086C14.4119 3.93777 14.3794 4.03066 14.3183 4.10373C14.2533 4.18139 14.1625 4.2261 14.0639 4.22853C13.9663 4.23094 13.8717 4.19191 13.7941 4.12262C13.1785 3.57303 12.4963 3.12879 11.7418 2.79627L11.5922 2.70509ZM11.5922 2.70509L11.6796 2.75948M11.5922 2.70509L11.6796 2.75948M11.6796 2.75948C11.6833 2.76178 11.6853 2.76313 11.6883 2.76521M11.6796 2.75948L11.6883 2.76521M11.6883 2.76521C11.6909 2.76695 11.6942 2.7692 11.6998 2.77293M11.6883 2.76521L11.6998 2.77293M11.6998 2.77293C11.7091 2.77899 11.7237 2.78832 11.7418 2.79627L11.6998 2.77293Z" fill="#A566FF" stroke="#A566FF" stroke-width="0.266649"/>
<path d="M11.8003 14.1891C12.2213 13.7047 12.5925 13.183 12.8924 12.611C12.9724 12.4585 13.0481 12.3021 13.123 12.1475C13.1567 12.0778 13.1902 12.0085 13.2239 11.9401L13.2927 11.8005L13.1441 11.754L12.7245 11.6228L12.6161 11.5888L12.5654 11.6905C12.5612 11.6988 12.5565 11.708 12.5516 11.7177C12.5395 11.7412 12.526 11.7677 12.5149 11.7924L12.5149 11.7924C12.2616 12.3567 11.9458 12.8831 11.5646 13.3695C11.496 13.457 11.428 13.537 11.3581 13.6192C11.3058 13.6808 11.2525 13.7435 11.1971 13.8115C11.0736 13.9632 11.069 14.1699 11.2155 14.3067L11.2155 14.3067C11.2874 14.3738 11.3785 14.408 11.4748 14.3997C11.5689 14.3916 11.6541 14.3443 11.7225 14.275C11.749 14.2481 11.7736 14.2199 11.7949 14.1953C11.7967 14.1932 11.7985 14.1911 11.8003 14.1891ZM11.8003 14.1891L11.6996 14.1016M11.8003 14.1891C11.8003 14.1891 11.8003 14.1891 11.8003 14.1891L11.6996 14.1016M11.6996 14.1016C11.698 14.1035 11.6963 14.1054 11.6947 14.1074C11.6728 14.1325 11.651 14.1577 11.6276 14.1814C11.525 14.2854 11.3994 14.296 11.3065 14.2092C11.2189 14.1275 11.2143 14.0016 11.3005 13.8957C11.3516 13.833 11.404 13.7713 11.4563 13.7096C11.5285 13.6245 11.6008 13.5395 11.6695 13.4517C12.0575 12.9566 12.3789 12.4209 12.6365 11.847C12.6462 11.8255 12.657 11.8044 12.6682 11.7824C12.6736 11.7719 12.6791 11.7611 12.6847 11.75L12.9755 11.841C12.9786 11.8348 12.9816 11.8286 12.9847 11.8224L13.1043 11.8812L13.0645 12.0085L13.0451 12.0024C13.0306 12.0322 13.0162 12.0619 13.0018 12.0917C12.9274 12.2453 12.8533 12.3985 12.7743 12.5491C12.48 13.1105 12.115 13.6237 11.6996 14.1016Z" fill="#A566FF" stroke="#A566FF" stroke-width="0.266649"/>
<path d="M3.74638 12.6167L3.64226 12.5668C3.63203 12.5619 3.62152 12.5568 3.61087 12.5516C3.587 12.54 3.56246 12.528 3.53893 12.5174C2.97478 12.2641 2.44876 11.9477 1.96216 11.5667C1.87549 11.4989 1.79745 11.4324 1.71719 11.364C1.65459 11.3106 1.59063 11.2561 1.52016 11.1989C1.36756 11.075 1.15822 11.0753 1.0242 11.2232L1.0242 11.2232C0.960295 11.2937 0.927235 11.3821 0.933928 11.4753C0.940505 11.567 0.984386 11.6504 1.05041 11.7176L1.05041 11.7176C1.06709 11.7346 1.08543 11.7507 1.09925 11.7628C1.10189 11.7651 1.10438 11.7673 1.10665 11.7693L1.10665 11.7693C1.67438 12.2718 2.29671 12.6948 2.97856 13.0296L3.03732 12.9099L2.97856 13.0296C3.07491 13.0769 3.17442 13.1215 3.27116 13.1648C3.31464 13.1843 3.35756 13.2036 3.39939 13.2227L3.53686 13.2855L3.58204 13.1413L3.71186 12.7269L3.74638 12.6167Z" fill="#A566FF" stroke="#A566FF" stroke-width="0.266649"/>
<path d="M2.03169 3.87502C1.46304 3.87159 1.00328 4.31612 1.00002 4.87249C0.996661 5.44574 1.44328 5.90763 2.00676 5.91365C2.56438 5.91961 3.03808 5.44942 3.03722 4.89083C3.03638 4.33861 2.58075 3.87833 2.03169 3.87502ZM1.98375 5.36835C1.71819 5.36835 1.5029 5.15307 1.5029 4.88752C1.5029 4.62196 1.71819 4.40669 1.98375 4.40669C2.24931 4.40669 2.4646 4.62196 2.4646 4.88752C2.4646 5.15307 2.24932 5.36835 1.98375 5.36835Z" fill="#A566FF"/>
<path d="M7.67375 5.73438C6.61654 5.73152 5.74101 6.60409 5.73829 7.66333C5.73557 8.71907 6.61055 9.59393 7.67049 9.59526C8.72053 9.59658 9.5928 8.72728 9.59911 7.67321C9.60541 6.61728 8.73151 5.73725 7.67375 5.73438ZM8.70887 7.94C8.53108 8.50769 7.92673 8.82378 7.35901 8.646C6.79129 8.46822 6.47518 7.86389 6.65297 7.29619C6.83076 6.7285 7.43512 6.41241 8.00284 6.59019C8.57056 6.76797 8.88666 7.3723 8.70887 7.94Z" fill="#A566FF"/>
<path d="M10.4448 1C9.87654 0.998762 9.41548 1.45705 9.41798 2.02069C9.42044 2.57424 9.88829 3.03926 10.4408 3.03732C10.9997 3.03536 11.4557 2.57753 11.4562 2.01784C11.4567 1.45358 11.0072 1.00123 10.4448 1ZM10.4572 2.49779C10.1916 2.49779 9.97631 2.28251 9.97631 2.01696C9.97631 1.75141 10.1916 1.53613 10.4572 1.53613C10.7227 1.53613 10.938 1.75141 10.938 2.01696C10.938 2.28252 10.7227 2.49779 10.4572 2.49779Z" fill="#A566FF"/>
<path d="M13.3141 9.41407C12.7618 9.41547 12.2968 9.88298 12.2969 10.4366C12.297 10.9939 12.7558 11.4513 13.3159 11.4526C13.8791 11.4539 14.3333 11.0031 14.3345 10.4416C14.3357 9.87301 13.8785 9.41263 13.3141 9.41407ZM13.3312 10.8947C13.0656 10.8947 12.8503 10.6794 12.8503 10.4139C12.8503 10.1483 13.0656 9.93304 13.3312 9.93304C13.5967 9.93304 13.812 10.1483 13.812 10.4139C13.812 10.6794 13.5967 10.8947 13.3312 10.8947Z" fill="#A566FF"/>
<path d="M4.8935 12.2969C4.33583 12.2976 3.87922 12.7565 3.87891 13.3167C3.87858 13.8809 4.32875 14.3336 4.89067 14.3342C5.45892 14.3348 5.92037 13.8755 5.91698 13.3127C5.91363 12.7585 5.44789 12.2962 4.8935 12.2969ZM4.90625 13.7957C4.64068 13.7957 4.4254 13.5804 4.4254 13.3148C4.4254 13.0493 4.64068 12.834 4.90625 12.834C5.17182 12.834 5.3871 13.0493 5.3871 13.3148C5.3871 13.5804 5.17181 13.7957 4.90625 13.7957Z" fill="#A566FF"/>
</svg>
