<svg width="26" height="25" viewBox="0 0 26 25" fill="none" xmlns="http://www.w3.org/2000/svg">
<path fill-rule="evenodd" clip-rule="evenodd" d="M21.6445 17.9618L23.1201 19.411H23.1212C23.2861 19.5735 23.2885 19.8423 23.126 20.0072L20.4128 22.7682C20.2503 22.9331 19.9815 22.9355 19.8166 22.773L18.2778 21.2616C17.3291 21.8339 16.3052 22.2365 15.2527 22.4731L15.2706 24.5424C15.2718 24.7742 15.0842 24.9653 14.8524 24.9677L10.9815 25.0012C10.7497 25.0024 10.5585 24.8148 10.5561 24.583L10.537 22.4241C9.49044 22.1649 8.4773 21.7395 7.53942 21.1457L6.0902 22.6212C5.92772 22.7861 5.6589 22.7885 5.49403 22.626L2.73298 19.9128C2.5681 19.7503 2.56571 19.4815 2.7282 19.3166L4.23955 17.7778C3.66727 16.8291 3.26464 15.8052 3.02808 14.7527L0.958787 14.7706C0.727007 14.7718 0.535848 14.5842 0.533458 14.3524L0.500006 10.4815C0.498811 10.2497 0.686385 10.0585 0.918165 10.0561L3.07706 10.037C3.33632 8.99044 3.76165 7.9773 4.35544 7.03942L2.87993 5.5902C2.71506 5.42772 2.71267 5.1589 2.87515 4.99403L5.58841 2.23298C5.7509 2.0681 6.01971 2.06571 6.18459 2.2282L7.72222 3.73955C8.67085 3.16727 9.69474 2.76464 10.7473 2.52808L10.7294 0.458787C10.7282 0.227007 10.9158 0.0358479 11.1475 0.0334584L15.0185 5.67583e-06C15.2503 -0.00118907 15.4414 0.186385 15.4438 0.418165L15.463 2.57706C16.5095 2.83632 17.5227 3.26165 18.4606 3.85544L19.9098 2.37993C20.0723 2.21506 20.3411 2.21267 20.506 2.37515L23.267 5.08841C23.4319 5.2509 23.4343 5.51971 23.2718 5.68459L21.7604 7.22341C22.3327 8.17204 22.7353 9.19593 22.9719 10.2485L25.0412 10.2306C25.273 10.2294 25.4641 10.417 25.4665 10.6487L25.5 14.5197C25.5012 14.7515 25.3136 14.9426 25.0818 14.945L22.9229 14.9641C22.6637 16.0107 22.2383 17.0239 21.6445 17.9618ZM10.2192 9.76941C8.70908 11.3058 8.73058 13.7742 10.267 15.2831V15.2843C11.8035 16.7933 14.2718 16.7718 15.7808 15.2354C17.2909 13.6989 17.2694 11.2306 15.733 9.72162C14.1965 8.21147 11.7282 8.23297 10.2192 9.76941ZM19.0714 12.5C19.0714 15.8531 16.3531 18.5714 13 18.5714C9.64684 18.5714 6.92857 15.8531 6.92857 12.5C6.92857 9.14683 9.64684 6.42856 13 6.42856C16.3531 6.42856 19.0714 9.14683 19.0714 12.5ZM20.5 12.5C20.5 16.6421 17.1421 20 13 20C8.85786 20 5.5 16.6421 5.5 12.5C5.5 8.35785 8.85786 4.99999 13 4.99999C17.1421 4.99999 20.5 8.35785 20.5 12.5Z" fill="url(#paint0_linear_4205_84836)"/>
<defs>
<linearGradient id="paint0_linear_4205_84836" x1="13" y1="0" x2="13" y2="25.0012" gradientUnits="userSpaceOnUse">
<stop stop-color="#A566FF"/>
<stop offset="1" stop-color="#15E8FF"/>
</linearGradient>
</defs>
</svg>
