<svg width="28" height="28" viewBox="0 0 28 28" fill="none" xmlns="http://www.w3.org/2000/svg">
<g filter="url(#filter0_i_1087_5620)">
<circle cx="13.9964" cy="14.0003" r="12.973" fill="#2B282E"/>
</g>
<circle cx="13.9964" cy="14.0003" r="12.973" stroke="url(#paint0_linear_1087_5620)" stroke-width="0.540541"/>
<path d="M19.0194 10.73C19.1722 10.237 19.2212 9.71768 19.1634 9.20479C19.1055 8.6919 18.942 8.19656 18.6831 7.75001C18.6392 7.67398 18.5761 7.61085 18.5001 7.56697C18.424 7.52308 18.3378 7.49999 18.25 7.50001C17.6676 7.49879 17.093 7.6338 16.5721 7.89425C16.0512 8.1547 15.5985 8.53337 15.25 9.00001H13.75C13.4015 8.53337 12.9488 8.1547 12.4279 7.89425C11.907 7.6338 11.3324 7.49879 10.75 7.50001C10.6622 7.49999 10.576 7.52308 10.4999 7.56697C10.4239 7.61085 10.3608 7.67398 10.3169 7.75001C10.058 8.19656 9.89452 8.6919 9.83664 9.20479C9.77877 9.71768 9.82779 10.237 9.98062 10.73C9.6717 11.2692 9.50623 11.8786 9.5 12.5V13C9.50105 13.846 9.80817 14.6631 10.3646 15.3003C10.9211 15.9375 11.6893 16.3519 12.5275 16.4669C12.1854 16.9047 11.9997 17.4444 12 18V18.5H10.5C10.1022 18.5 9.72064 18.342 9.43934 18.0607C9.15804 17.7794 9 17.3978 9 17C9 16.6717 8.93534 16.3466 8.8097 16.0433C8.68406 15.74 8.49991 15.4644 8.26777 15.2322C8.03562 15.0001 7.76002 14.8159 7.45671 14.6903C7.15339 14.5647 6.8283 14.5 6.5 14.5C6.36739 14.5 6.24021 14.5527 6.14645 14.6465C6.05268 14.7402 6 14.8674 6 15C6 15.1326 6.05268 15.2598 6.14645 15.3536C6.24021 15.4473 6.36739 15.5 6.5 15.5C6.89782 15.5 7.27936 15.658 7.56066 15.9393C7.84196 16.2207 8 16.6022 8 17C8 17.663 8.26339 18.2989 8.73223 18.7678C9.20107 19.2366 9.83696 19.5 10.5 19.5H12V20.5C12 20.6326 12.0527 20.7598 12.1464 20.8536C12.2402 20.9473 12.3674 21 12.5 21C12.6326 21 12.7598 20.9473 12.8536 20.8536C12.9473 20.7598 13 20.6326 13 20.5V18C13 17.6022 13.158 17.2207 13.4393 16.9393C13.7206 16.658 14.1022 16.5 14.5 16.5C14.8978 16.5 15.2794 16.658 15.5607 16.9393C15.842 17.2207 16 17.6022 16 18V20.5C16 20.6326 16.0527 20.7598 16.1464 20.8536C16.2402 20.9473 16.3674 21 16.5 21C16.6326 21 16.7598 20.9473 16.8536 20.8536C16.9473 20.7598 17 20.6326 17 20.5V18C17.0003 17.4444 16.8146 16.9047 16.4725 16.4669C17.3107 16.3519 18.0789 15.9375 18.6354 15.3003C19.1918 14.6631 19.4989 13.846 19.5 13V12.5C19.4938 11.8786 19.3283 11.2692 19.0194 10.73ZM18.5 13C18.5 13.663 18.2366 14.2989 17.7678 14.7678C17.2989 15.2366 16.663 15.5 16 15.5H13C12.337 15.5 11.7011 15.2366 11.2322 14.7678C10.7634 14.2989 10.5 13.663 10.5 13V12.5C10.5061 12 10.6558 11.5123 10.9313 11.095C10.9826 11.0273 11.0158 10.9477 11.0279 10.8636C11.0399 10.7795 11.0303 10.6937 11 10.6144C10.8698 10.2785 10.8071 9.92023 10.8156 9.56009C10.824 9.19995 10.9035 8.84501 11.0494 8.51563C11.4586 8.55965 11.8526 8.6952 12.2023 8.91224C12.552 9.12928 12.8483 9.42223 13.0694 9.76938C13.1144 9.83982 13.1764 9.89784 13.2497 9.93813C13.3229 9.97842 13.4051 9.9997 13.4887 10H15.5106C15.5946 10 15.6771 9.97889 15.7508 9.93858C15.8244 9.89828 15.8867 9.84009 15.9319 9.76938C16.1529 9.4222 16.4492 9.12922 16.7989 8.91218C17.1486 8.69514 17.5427 8.55961 17.9519 8.51563C18.0976 8.8451 18.1768 9.20007 18.1851 9.56021C18.1933 9.92036 18.1304 10.2786 18 10.6144C17.9698 10.693 17.9597 10.7779 17.9706 10.8614C17.9815 10.9449 18.0131 11.0243 18.0625 11.0925C18.3407 11.5098 18.4926 11.9985 18.5 12.5V13Z" fill="#F2F2F4"/>
<defs>
<filter id="filter0_i_1087_5620" x="0.75" y="0.757812" width="26.4922" height="26.4844" filterUnits="userSpaceOnUse" color-interpolation-filters="sRGB">
<feFlood flood-opacity="0" result="BackgroundImageFix"/>
<feBlend mode="normal" in="SourceGraphic" in2="BackgroundImageFix" result="shape"/>
<feColorMatrix in="SourceAlpha" type="matrix" values="0 0 0 0 0 0 0 0 0 0 0 0 0 0 0 0 0 0 127 0" result="hardAlpha"/>
<feOffset/>
<feGaussianBlur stdDeviation="4.32432"/>
<feComposite in2="hardAlpha" operator="arithmetic" k2="-1" k3="1"/>
<feColorMatrix type="matrix" values="0 0 0 0 0 0 0 0 0 0 0 0 0 0 0 0 0 0 1 0"/>
<feBlend mode="normal" in2="shape" result="effect1_innerShadow_1087_5620"/>
</filter>
<linearGradient id="paint0_linear_1087_5620" x1="16.4491" y1="18.0066" x2="22.9901" y2="26.0193" gradientUnits="userSpaceOnUse">
<stop offset="0.0169549" stop-color="#A566FF"/>
<stop offset="1" stop-color="#15E8FF"/>
</linearGradient>
</defs>
</svg>
