<svg width="22" height="22" viewBox="0 0 22 22" fill="none" xmlns="http://www.w3.org/2000/svg">
<g filter="url(#filter0_i_1435_19894)">
<circle cx="11.0034" cy="11.0034" r="10.3784" fill="#2B282E"/>
</g>
<circle cx="11.0034" cy="11.0034" r="10.3784" stroke="url(#paint0_linear_1435_19894)" stroke-width="0.432432"/>
<path d="M15.0171 8.38869C15.1393 7.99429 15.1785 7.57884 15.1322 7.16852C15.0859 6.75821 14.9551 6.36193 14.7481 6.00469C14.7129 5.94387 14.6624 5.89337 14.6016 5.85826C14.5408 5.82315 14.4718 5.80468 14.4016 5.80469C13.9357 5.80372 13.476 5.91173 13.0593 6.12009C12.6425 6.32845 12.2803 6.63138 12.0016 7.00469H10.8016C10.5228 6.63138 10.1606 6.32845 9.74387 6.12009C9.32715 5.91173 8.86747 5.80372 8.40156 5.80469C8.33133 5.80468 8.26234 5.82315 8.20151 5.85826C8.14069 5.89337 8.09018 5.94387 8.05506 6.00469C7.84799 6.36193 7.71718 6.75821 7.67088 7.16852C7.62458 7.57884 7.6638 7.99429 7.78606 8.38869C7.53893 8.82005 7.40654 9.30758 7.40156 9.80469V10.2047C7.4024 10.8815 7.6481 11.5351 8.09327 12.0449C8.53845 12.5547 9.15304 12.8862 9.82356 12.9782C9.54987 13.3284 9.40131 13.7602 9.40156 14.2047V14.6047H8.20156C7.8833 14.6047 7.57808 14.4783 7.35303 14.2532C7.12799 14.0282 7.00156 13.723 7.00156 13.4047C7.00156 13.1421 6.94983 12.882 6.84932 12.6393C6.74881 12.3967 6.60149 12.1762 6.41578 11.9905C6.23006 11.8048 6.00958 11.6574 5.76693 11.5569C5.52428 11.4564 5.26421 11.4047 5.00156 11.4047C4.89548 11.4047 4.79373 11.4468 4.71872 11.5219C4.64371 11.5969 4.60156 11.6986 4.60156 11.8047C4.60156 11.9108 4.64371 12.0125 4.71872 12.0875C4.79373 12.1626 4.89548 12.2047 5.00156 12.2047C5.31982 12.2047 5.62505 12.3311 5.85009 12.5562C6.07513 12.7812 6.20156 13.0864 6.20156 13.4047C6.20156 13.9351 6.41228 14.4438 6.78735 14.8189C7.16242 15.194 7.67113 15.4047 8.20156 15.4047H9.40156V16.2047C9.40156 16.3108 9.44371 16.4125 9.51872 16.4875C9.59373 16.5626 9.69548 16.6047 9.80156 16.6047C9.90765 16.6047 10.0094 16.5626 10.0844 16.4875C10.1594 16.4125 10.2016 16.3108 10.2016 16.2047V14.2047C10.2016 13.8864 10.328 13.5812 10.553 13.3562C10.7781 13.1311 11.0833 13.0047 11.4016 13.0047C11.7198 13.0047 12.025 13.1311 12.2501 13.3562C12.4751 13.5812 12.6016 13.8864 12.6016 14.2047V16.2047C12.6016 16.3108 12.6437 16.4125 12.7187 16.4875C12.7937 16.5626 12.8955 16.6047 13.0016 16.6047C13.1076 16.6047 13.2094 16.5626 13.2844 16.4875C13.3594 16.4125 13.4016 16.3108 13.4016 16.2047V14.2047C13.4018 13.7602 13.2533 13.3284 12.9796 12.9782C13.6501 12.8862 14.2647 12.5547 14.7099 12.0449C15.155 11.5351 15.4007 10.8815 15.4016 10.2047V9.80469C15.3966 9.30758 15.2642 8.82005 15.0171 8.38869ZM14.6016 10.2047C14.6016 10.7351 14.3908 11.2438 14.0158 11.6189C13.6407 11.994 13.132 12.2047 12.6016 12.2047H10.2016C9.67113 12.2047 9.16242 11.994 8.78735 11.6189C8.41228 11.2438 8.20156 10.7351 8.20156 10.2047V9.80469C8.20647 9.40471 8.32622 9.01455 8.54656 8.68069C8.58764 8.62655 8.61424 8.56284 8.62386 8.49557C8.63349 8.42829 8.62581 8.35968 8.60156 8.29619C8.49737 8.02749 8.44723 7.74087 8.45401 7.45276C8.46079 7.16464 8.52435 6.8807 8.64106 6.61719C8.96842 6.65241 9.28366 6.76085 9.5634 6.93448C9.84314 7.10811 10.0802 7.34247 10.2571 7.62019C10.2931 7.67655 10.3427 7.72296 10.4013 7.75519C10.4599 7.78743 10.5257 7.80445 10.5926 7.80469H12.2101C12.2772 7.8047 12.3433 7.7878 12.4022 7.75555C12.4611 7.72331 12.5109 7.67676 12.5471 7.62019C12.7239 7.34245 12.9609 7.10806 13.2407 6.93443C13.5204 6.7608 13.8357 6.65237 14.1631 6.61719C14.2796 6.88076 14.343 7.16474 14.3496 7.45286C14.3562 7.74097 14.3059 8.02756 14.2016 8.29619C14.1774 8.35907 14.1693 8.42699 14.178 8.49379C14.1868 8.56058 14.212 8.62414 14.2516 8.67869C14.4741 9.01256 14.5956 9.40351 14.6016 9.80469V10.2047Z" fill="#F2F2F4"/>
<defs>
<filter id="filter0_i_1435_19894" x="0.40625" y="0.40625" width="21.1953" height="21.1953" filterUnits="userSpaceOnUse" color-interpolation-filters="sRGB">
<feFlood flood-opacity="0" result="BackgroundImageFix"/>
<feBlend mode="normal" in="SourceGraphic" in2="BackgroundImageFix" result="shape"/>
<feColorMatrix in="SourceAlpha" type="matrix" values="0 0 0 0 0 0 0 0 0 0 0 0 0 0 0 0 0 0 127 0" result="hardAlpha"/>
<feOffset/>
<feGaussianBlur stdDeviation="3.45946"/>
<feComposite in2="hardAlpha" operator="arithmetic" k2="-1" k3="1"/>
<feColorMatrix type="matrix" values="0 0 0 0 0 0 0 0 0 0 0 0 0 0 0 0 0 0 1 0"/>
<feBlend mode="normal" in2="shape" result="effect1_innerShadow_1435_19894"/>
</filter>
<linearGradient id="paint0_linear_1435_19894" x1="12.9655" y1="14.2084" x2="18.1983" y2="20.6186" gradientUnits="userSpaceOnUse">
<stop offset="0.0169549" stop-color="#A566FF"/>
<stop offset="1" stop-color="#15E8FF"/>
</linearGradient>
</defs>
</svg>
