<svg width="16" height="16" viewBox="0 0 16 16" fill="none" xmlns="http://www.w3.org/2000/svg">
<path d="M6.45807 2.10156H9.69071C9.94792 2.10156 10.1946 2.20374 10.3765 2.38561C10.5583 2.56748 10.6605 2.81415 10.6605 3.07135C10.6605 3.6715 10.4221 4.24706 9.99773 4.67143C9.57337 5.09579 8.9978 5.3342 8.39766 5.3342H7.75113C7.15098 5.3342 6.57542 5.09579 6.15105 4.67143C5.72669 4.24706 5.48828 3.6715 5.48828 3.07135C5.48828 2.81415 5.59046 2.56748 5.77233 2.38561C5.9542 2.20374 6.20087 2.10156 6.45807 2.10156Z" stroke="#A566FF" stroke-width="1.65217" stroke-linecap="round" stroke-linejoin="round"/>
<path d="M2.90234 11.1547V10.5082C2.90234 9.1364 3.44727 7.82083 4.41725 6.85085C5.38723 5.88087 6.70281 5.33594 8.07457 5.33594C9.44633 5.33594 10.7619 5.88087 11.7319 6.85085C12.7019 7.82083 13.2468 9.1364 13.2468 10.5082V11.1547C13.2468 11.8406 12.9743 12.4984 12.4893 12.9833C12.0043 13.4683 11.3466 13.7408 10.6607 13.7408H5.48846C4.80258 13.7408 4.14479 13.4683 3.6598 12.9833C3.17481 12.4984 2.90234 11.8406 2.90234 11.1547Z" stroke="#A566FF" stroke-width="1.65217" stroke-linecap="round" stroke-linejoin="round"/>
</svg>
