<svg width="28" height="28" viewBox="0 0 28 28" fill="none" xmlns="http://www.w3.org/2000/svg">
<g filter="url(#filter0_i_1087_7675)">
<circle cx="13.9964" cy="14.0003" r="12.973" fill="#2B282E"/>
</g>
<circle cx="13.9964" cy="14.0003" r="12.973" stroke="url(#paint0_linear_1087_7675)" stroke-width="0.540541"/>
<path d="M19.5 7.5H8.5C8.23478 7.5 7.98043 7.60536 7.79289 7.79289C7.60536 7.98043 7.5 8.23478 7.5 8.5V19.5C7.5 19.7652 7.60536 20.0196 7.79289 20.2071C7.98043 20.3946 8.23478 20.5 8.5 20.5H19.5C19.7652 20.5 20.0196 20.3946 20.2071 20.2071C20.3946 20.0196 20.5 19.7652 20.5 19.5V8.5C20.5 8.23478 20.3946 7.98043 20.2071 7.79289C20.0196 7.60536 19.7652 7.5 19.5 7.5ZM19.5 19.5H8.5V8.5H19.5V19.5ZM12 13V17C12 17.1326 11.9473 17.2598 11.8536 17.3536C11.7598 17.4473 11.6326 17.5 11.5 17.5C11.3674 17.5 11.2402 17.4473 11.1464 17.3536C11.0527 17.2598 11 17.1326 11 17V13C11 12.8674 11.0527 12.7402 11.1464 12.6464C11.2402 12.5527 11.3674 12.5 11.5 12.5C11.6326 12.5 11.7598 12.5527 11.8536 12.6464C11.9473 12.7402 12 12.8674 12 13ZM17.5 14.75V17C17.5 17.1326 17.4473 17.2598 17.3536 17.3536C17.2598 17.4473 17.1326 17.5 17 17.5C16.8674 17.5 16.7402 17.4473 16.6464 17.3536C16.5527 17.2598 16.5 17.1326 16.5 17V14.75C16.5 14.4185 16.3683 14.1005 16.1339 13.8661C15.8995 13.6317 15.5815 13.5 15.25 13.5C14.9185 13.5 14.6005 13.6317 14.3661 13.8661C14.1317 14.1005 14 14.4185 14 14.75V17C14 17.1326 13.9473 17.2598 13.8536 17.3536C13.7598 17.4473 13.6326 17.5 13.5 17.5C13.3674 17.5 13.2402 17.4473 13.1464 17.3536C13.0527 17.2598 13 17.1326 13 17V13C13.0006 12.8775 13.0462 12.7595 13.128 12.6684C13.2098 12.5773 13.3223 12.5194 13.444 12.5057C13.5657 12.492 13.6882 12.5234 13.7883 12.594C13.8883 12.6646 13.959 12.7695 13.9869 12.8888C14.3251 12.6593 14.7195 12.5263 15.1276 12.5041C15.5357 12.4818 15.9422 12.5712 16.3033 12.7625C16.6645 12.9539 16.9667 13.24 17.1776 13.5902C17.3884 13.9403 17.4999 14.3413 17.5 14.75ZM12.25 11.25C12.25 11.3983 12.206 11.5433 12.1236 11.6667C12.0412 11.79 11.9241 11.8861 11.787 11.9429C11.65 11.9997 11.4992 12.0145 11.3537 11.9856C11.2082 11.9567 11.0746 11.8852 10.9697 11.7803C10.8648 11.6754 10.7933 11.5418 10.7644 11.3963C10.7355 11.2508 10.7503 11.1 10.8071 10.963C10.8639 10.8259 10.96 10.7088 11.0833 10.6264C11.2067 10.544 11.3517 10.5 11.5 10.5C11.6989 10.5 11.8897 10.579 12.0303 10.7197C12.171 10.8603 12.25 11.0511 12.25 11.25Z" fill="#F2F2F4"/>
<defs>
<filter id="filter0_i_1087_7675" x="0.75" y="0.757812" width="26.4922" height="26.4844" filterUnits="userSpaceOnUse" color-interpolation-filters="sRGB">
<feFlood flood-opacity="0" result="BackgroundImageFix"/>
<feBlend mode="normal" in="SourceGraphic" in2="BackgroundImageFix" result="shape"/>
<feColorMatrix in="SourceAlpha" type="matrix" values="0 0 0 0 0 0 0 0 0 0 0 0 0 0 0 0 0 0 127 0" result="hardAlpha"/>
<feOffset/>
<feGaussianBlur stdDeviation="4.32432"/>
<feComposite in2="hardAlpha" operator="arithmetic" k2="-1" k3="1"/>
<feColorMatrix type="matrix" values="0 0 0 0 0 0 0 0 0 0 0 0 0 0 0 0 0 0 1 0"/>
<feBlend mode="normal" in2="shape" result="effect1_innerShadow_1087_7675"/>
</filter>
<linearGradient id="paint0_linear_1087_7675" x1="16.4491" y1="18.0066" x2="22.9901" y2="26.0193" gradientUnits="userSpaceOnUse">
<stop offset="0.0169549" stop-color="#A566FF"/>
<stop offset="1" stop-color="#15E8FF"/>
</linearGradient>
</defs>
</svg>
