<svg width="24" height="23" viewBox="0 0 24 23" fill="none" xmlns="http://www.w3.org/2000/svg">
<path d="M21.7781 10.2698L8.27813 2.37255C8.05326 2.23598 7.79356 2.16124 7.52738 2.15649C7.26121 2.15174 6.99878 2.21715 6.76876 2.34559C6.53533 2.46833 6.34074 2.64909 6.20545 2.86885C6.07017 3.08862 5.9992 3.33927 6.00001 3.59442V19.4069C5.9992 19.6621 6.07017 19.9127 6.20545 20.1325C6.34074 20.3523 6.53533 20.533 6.76876 20.6558C6.99878 20.7842 7.26121 20.8496 7.52738 20.8449C7.79356 20.8401 8.05326 20.7654 8.27813 20.6288L21.7781 12.7315C21.9994 12.6036 22.1824 12.4231 22.3095 12.2074C22.4365 11.9918 22.5033 11.7483 22.5033 11.5007C22.5033 11.253 22.4365 11.0096 22.3095 10.7939C22.1824 10.5783 21.9994 10.3977 21.7781 10.2698Z" fill="url(#paint0_linear_2010_38992)"/>
<defs>
<linearGradient id="paint0_linear_2010_38992" x1="14.2516" y1="2.15625" x2="14.2516" y2="20.8451" gradientUnits="userSpaceOnUse">
<stop stop-color="#A566FF"/>
<stop offset="1" stop-color="#15E8FF"/>
</linearGradient>
</defs>
</svg>
