<svg width="12" height="12" viewBox="0 0 12 12" fill="none" xmlns="http://www.w3.org/2000/svg">
<path d="M6 10.5C8.48528 10.5 10.5 8.48528 10.5 6C10.5 3.51472 8.48528 1.5 6 1.5C3.51472 1.5 1.5 3.51472 1.5 6C1.5 8.48528 3.51472 10.5 6 10.5Z" stroke="#D1CFD1" stroke-width="0.75" stroke-linecap="round" stroke-linejoin="round"/>
<path d="M6 9C6.31066 9 6.5625 8.74816 6.5625 8.4375C6.5625 8.12684 6.31066 7.875 6 7.875C5.68934 7.875 5.4375 8.12684 5.4375 8.4375C5.4375 8.74816 5.68934 9 6 9Z" fill="#D1CFD1"/>
<path d="M6 6.75V6.375C6.25959 6.375 6.51335 6.29802 6.72919 6.1538C6.94503 6.00958 7.11325 5.8046 7.21259 5.56477C7.31193 5.32494 7.33792 5.06104 7.28728 4.80644C7.23664 4.55184 7.11163 4.31798 6.92808 4.13442C6.74452 3.95087 6.51066 3.82586 6.25606 3.77522C6.00146 3.72458 5.73756 3.75057 5.49773 3.84991C5.2579 3.94925 5.05292 4.11748 4.9087 4.33331C4.76448 4.54915 4.6875 4.80291 4.6875 5.0625" stroke="#D1CFD1" stroke-width="0.75" stroke-linecap="round" stroke-linejoin="round"/>
</svg>
