<svg width="40" height="40" viewBox="0 0 40 40" fill="none" xmlns="http://www.w3.org/2000/svg">
<path d="M14.3211 18.8677C13.7883 17.5605 13.5168 16.1616 13.5221 14.75C13.5221 12.562 14.1709 10.4232 15.3865 8.60401C16.6021 6.78479 18.3298 5.36688 20.3512 4.52959C22.3726 3.69229 24.5969 3.47322 26.7428 3.90007C28.8887 4.32692 30.8599 5.38052 32.407 6.92764C33.9541 8.47475 35.0077 10.4459 35.4346 12.5918C35.8614 14.7377 35.6424 16.962 34.8051 18.9834C33.9678 21.0048 32.5499 22.7326 30.7306 23.9481C28.9114 25.1637 26.7726 25.8125 24.5846 25.8125C23.173 25.8178 21.7741 25.5464 20.4669 25.0135L18.4388 27.0417H14.7513V30.7292H11.0638V34.4167H4.91797V28.2708L14.3211 18.8677Z" stroke="url(#paint0_linear_3576_51190)" stroke-width="2.80952" stroke-linecap="round" stroke-linejoin="round"/>
<path d="M27.6562 13.5234C28.6745 13.5234 29.5 12.698 29.5 11.6797C29.5 10.6614 28.6745 9.83594 27.6562 9.83594C26.638 9.83594 25.8125 10.6614 25.8125 11.6797C25.8125 12.698 26.638 13.5234 27.6562 13.5234Z" fill="#16E2F7"/>
<defs>
<linearGradient id="paint0_linear_3576_51190" x1="20.2826" y1="3.6875" x2="20.2826" y2="34.4167" gradientUnits="userSpaceOnUse">
<stop offset="0.226752" stop-color="#15E8FF"/>
<stop offset="1" stop-color="#A566FF"/>
</linearGradient>
</defs>
</svg>
