<svg width="16" height="16" viewBox="0 0 16 16" fill="none" xmlns="http://www.w3.org/2000/svg">
<path d="M8.16864 12.2839C7.88251 12.2839 7.65055 12.052 7.65055 11.7658C7.65055 11.4797 7.88251 11.2478 8.16864 11.2478V12.2839ZM8.16864 11.2478H11.9686V12.2839H8.16864V11.2478ZM11.9686 7.97902H10.1344V6.94285H11.9686V7.97902ZM10.1344 7.97902H9.68735V6.94285H10.1344V7.97902ZM14.6392 9.61339C14.6392 11.0883 13.4435 12.2839 11.9686 12.2839V11.2478C12.8713 11.2478 13.603 10.516 13.603 9.61339H14.6392ZM13.603 9.61339C13.603 8.71075 12.8713 7.97902 11.9686 7.97902V6.94285C13.4435 6.94285 14.6392 8.13849 14.6392 9.61339H13.603Z" fill="#A566FF"/>
<path d="M8.04351 3.67434C8.32964 3.67434 8.5616 3.44238 8.5616 3.15625C8.5616 2.87012 8.32964 2.63816 8.04351 2.63816V3.67434ZM4.03526 3.67434H8.04351V2.63816H4.03526V3.67434ZM9.86255 6.94307H4.03526V7.97924H9.86255V6.94307ZM1.36473 5.3087C1.36473 6.7836 2.56037 7.97924 4.03526 7.97924V6.94307C3.13263 6.94307 2.4009 6.21134 2.4009 5.3087H1.36473ZM2.4009 5.3087C2.4009 4.40607 3.13263 3.67434 4.03526 3.67434V2.63816C2.56037 2.63816 1.36473 3.8338 1.36473 5.3087H2.4009Z" fill="#A566FF"/>
<rect width="5.05358" height="1.94656" rx="0.898414" transform="matrix(-1 0 0 1 7.12109 10.7969)" stroke="#A566FF" stroke-width="1.03617"/>
<rect width="5.05358" height="1.94656" rx="0.898414" transform="matrix(-1 0 0 1 14.1211 2)" stroke="#A566FF" stroke-width="1.03617"/>
</svg>
