<svg width="19" height="19" viewBox="0 0 19 19" fill="none" xmlns="http://www.w3.org/2000/svg">
<path d="M13.6562 7.42188H16.625C16.9529 7.42188 17.2188 7.68771 17.2188 8.01562V10.9844C17.2188 11.3123 16.9529 11.5781 16.625 11.5781H13.6562C13.3283 11.5781 13.0625 11.3123 13.0625 10.9844V8.01562C13.0625 7.68771 13.3283 7.42188 13.6562 7.42188Z" stroke="#A166FF" stroke-width="1.1875" stroke-linecap="round" stroke-linejoin="round"/>
<path d="M2.96875 2.96875H6.53125C6.85917 2.96875 7.125 3.23458 7.125 3.5625V7.125C7.125 7.45292 6.85917 7.71875 6.53125 7.71875H2.96875C2.64083 7.71875 2.375 7.45292 2.375 7.125V3.5625C2.375 3.23458 2.64083 2.96875 2.96875 2.96875Z" stroke="#A166FF" stroke-width="1.1875" stroke-linecap="round" stroke-linejoin="round"/>
<path d="M2.96875 11.2812H6.53125C6.85917 11.2812 7.125 11.5471 7.125 11.875V15.4375C7.125 15.7654 6.85917 16.0312 6.53125 16.0312H2.96875C2.64083 16.0312 2.375 15.7654 2.375 15.4375V11.875C2.375 11.5471 2.64083 11.2812 2.96875 11.2812Z" stroke="#A166FF" stroke-width="1.1875" stroke-linecap="round" stroke-linejoin="round"/>
<path d="M13.0625 9.5H10.0938" stroke="#A166FF" stroke-width="1.1875" stroke-linecap="round" stroke-linejoin="round"/>
<path d="M7.12498 13.6563H8.31248C8.54668 13.6572 8.77874 13.6118 8.9953 13.5227C9.21185 13.4335 9.40861 13.3023 9.57421 13.1367C9.73981 12.9711 9.87098 12.7744 9.96014 12.5578C10.0493 12.3413 10.0947 12.1092 10.0937 11.875V7.12502C10.0947 6.89082 10.0493 6.65875 9.96014 6.4422C9.87098 6.22565 9.73981 6.02889 9.57421 5.86329C9.40861 5.69769 9.21185 5.56652 8.9953 5.47736C8.77874 5.38819 8.54668 5.34278 8.31248 5.34377H7.12498" stroke="#A166FF" stroke-width="1.1875" stroke-linecap="round" stroke-linejoin="round"/>
</svg>
