<svg width="16" height="16" viewBox="0 0 16 16" fill="none" xmlns="http://www.w3.org/2000/svg">
<path d="M7.64393 1.85216L5.84965 3.64645C5.65438 3.84171 5.65438 4.15829 5.84965 4.35355L7.6426 6.14651C7.83787 6.34177 8.15445 6.34177 8.34971 6.14651L10.144 4.35223C10.3393 4.15696 10.3393 3.84038 10.144 3.64512L8.35104 1.85216C8.15578 1.6569 7.83919 1.6569 7.64393 1.85216Z" stroke="#A566FF" stroke-linecap="round" stroke-linejoin="round"/>
<path d="M11.6439 5.85216L9.84965 7.64645C9.65438 7.84171 9.65438 8.15829 9.84965 8.35355L11.6426 10.1465C11.8379 10.3418 12.1544 10.3418 12.3497 10.1465L14.144 8.35223C14.3393 8.15697 14.3393 7.84038 14.144 7.64512L12.351 5.85216C12.1558 5.6569 11.8392 5.6569 11.6439 5.85216Z" stroke="#A566FF" stroke-linecap="round" stroke-linejoin="round"/>
<path d="M3.64393 5.85216L1.84965 7.64645C1.65438 7.84171 1.65438 8.15829 1.84965 8.35355L3.64261 10.1465C3.83787 10.3418 4.15445 10.3418 4.34971 10.1465L6.144 8.35223C6.33926 8.15697 6.33926 7.84038 6.144 7.64512L4.35104 5.85216C4.15578 5.6569 3.83919 5.6569 3.64393 5.85216Z" stroke="#A566FF" stroke-linecap="round" stroke-linejoin="round"/>
<path d="M7.64393 9.85216L5.84965 11.6464C5.65438 11.8417 5.65438 12.1583 5.84965 12.3536L7.64261 14.1465C7.83787 14.3418 8.15445 14.3418 8.34971 14.1465L10.144 12.3522C10.3393 12.157 10.3393 11.8404 10.144 11.6451L8.35104 9.85216C8.15578 9.6569 7.83919 9.6569 7.64393 9.85216Z" stroke="#A166FF" stroke-linecap="round" stroke-linejoin="round"/>
</svg>
