<svg width="26" height="28" viewBox="0 0 26 28" fill="none" xmlns="http://www.w3.org/2000/svg">
<path d="M17.0128 17.3441C17.0128 19.305 15.5719 20.5083 13.1208 20.6123V21.8007C13.1208 21.9894 12.9678 22.1423 12.7791 22.1423C12.5904 22.1423 12.4374 21.9894 12.4374 21.8007V20.6123C10.1051 20.5083 8.66418 19.0822 8.51562 16.7202H9.77832C9.88231 18.384 10.8628 19.409 12.4374 19.5278V15.2792C10.6845 14.997 8.81273 14.6404 8.81273 12.4418C8.81273 10.5404 10.1646 9.44108 12.4374 9.33709V8.19323C12.4374 8.00453 12.5904 7.85156 12.7791 7.85156C12.9678 7.85156 13.1208 8.00453 13.1208 8.19323V9.35195C15.2451 9.48564 16.582 10.8672 16.7157 13.0806H15.453C15.3788 11.5505 14.5172 10.5998 13.1208 10.4512V14.2542C14.9777 14.5513 17.0128 14.9078 17.0128 17.3441ZM10.12 12.3676C10.12 13.5857 11.1747 13.9274 12.4374 14.1353V10.4215C10.9816 10.5107 10.12 11.2089 10.12 12.3676ZM13.1208 15.3832V19.5278C14.7548 19.4387 15.7204 18.6811 15.7204 17.4332C15.7204 15.9923 14.5172 15.6357 13.1208 15.3832Z" fill="url(#paint0_linear_4205_84853)"/>
<path d="M12.8538 3.78906C6.58329 3.78906 1.5 8.87235 1.5 15.1429C1.5 21.4135 6.58329 26.4968 12.8538 26.4968C19.1244 26.4968 24.2077 21.4135 24.2077 15.1429C24.2077 13.4275 23.8272 11.8009 23.1461 10.3429" stroke="url(#paint1_linear_4205_84853)" stroke-width="1.84615" stroke-linecap="round"/>
<path d="M15.8496 5.29297H22.9573" stroke="#16E8FF" stroke-width="1.47692" stroke-linecap="round" stroke-linejoin="round"/>
<path d="M19.4033 1.74219V8.84988" stroke="#16E8FF" stroke-width="1.47692" stroke-linecap="round" stroke-linejoin="round"/>
<defs>
<linearGradient id="paint0_linear_4205_84853" x1="5.00883" y1="2.79025" x2="17.8725" y2="3.59235" gradientUnits="userSpaceOnUse">
<stop stop-color="#A566FF"/>
<stop offset="1" stop-color="#15E8FF"/>
</linearGradient>
<linearGradient id="paint1_linear_4205_84853" x1="4.07299" y1="8.97982" x2="21.2279" y2="10.602" gradientUnits="userSpaceOnUse">
<stop stop-color="#A566FF"/>
<stop offset="0.536458" stop-color="#58ACFF"/>
<stop offset="0.911938" stop-color="#15E8FF"/>
</linearGradient>
</defs>
</svg>
