<svg width="16" height="16" viewBox="0 0 16 16" fill="none" xmlns="http://www.w3.org/2000/svg">
<path d="M5 10H13C13.1326 10 13.2598 9.94732 13.3536 9.85355C13.4473 9.75979 13.5 9.63261 13.5 9.5V3C13.5 2.86739 13.4473 2.74021 13.3536 2.64645C13.2598 2.55268 13.1326 2.5 13 2.5H6C5.86739 2.5 5.74021 2.55268 5.64645 2.64645C5.55268 2.74021 5.5 2.86739 5.5 3V3.5" stroke="#A566FF" stroke-width="1.5" stroke-linecap="round" stroke-linejoin="round"/>
<path d="M6.5 8.5L5 10L6.5 11.5" stroke="#A566FF" stroke-width="1.5" stroke-linecap="round" stroke-linejoin="round"/>
<path d="M11 6H3C2.86739 6 2.74021 6.05268 2.64645 6.14645C2.55268 6.24021 2.5 6.36739 2.5 6.5V13C2.5 13.1326 2.55268 13.2598 2.64645 13.3536C2.74021 13.4473 2.86739 13.5 3 13.5H10C10.1326 13.5 10.2598 13.4473 10.3536 13.3536C10.4473 13.2598 10.5 13.1326 10.5 13V12.5" stroke="#A566FF" stroke-width="1.5" stroke-linecap="round" stroke-linejoin="round"/>
<path d="M9.5 7.5L11 6L9.5 4.5" stroke="#A566FF" stroke-width="1.5" stroke-linecap="round" stroke-linejoin="round"/>
</svg>
