<svg width="33" height="32" viewBox="0 0 33 32" fill="none" xmlns="http://www.w3.org/2000/svg">
<circle cx="16.5352" cy="16" r="15.25" stroke="url(#paint0_linear_806_217)" stroke-width="1.5"/>
<path d="M8.37305 10.8117V22.0549C8.37305 22.4276 8.52112 22.7851 8.78468 23.0487C9.04825 23.3122 9.40572 23.4603 9.77845 23.4603H23.8325C24.0189 23.4603 24.1976 23.3863 24.3294 23.2545C24.4612 23.1227 24.5352 22.944 24.5352 22.7576V12.9198C24.5352 12.7334 24.4612 12.5547 24.3294 12.4229C24.1976 12.2911 24.0189 12.2171 23.8325 12.2171H9.77845C9.40572 12.2171 9.04825 12.069 8.78468 11.8054C8.52112 11.5419 8.37305 11.1844 8.37305 10.8117ZM8.37305 10.8117C8.37305 10.4389 8.52112 10.0814 8.78468 9.81788C9.04825 9.55432 9.40572 9.40625 9.77845 9.40625H21.7244" stroke="url(#paint0_linear_806_217)" stroke-linecap="round" stroke-linejoin="round"/>
<path d="M20.6703 18.8913C21.2524 18.8913 21.7243 18.4194 21.7243 17.8373C21.7243 17.2551 21.2524 16.7832 20.6703 16.7832C20.0881 16.7832 19.6162 17.2551 19.6162 17.8373C19.6162 18.4194 20.0881 18.8913 20.6703 18.8913Z" fill="#DDDCDD"/>
<defs>
<linearGradient id="paint0_linear_806_217" x1="16.5352" y1="0" x2="16.5352" y2="32" gradientUnits="userSpaceOnUse">
<stop stop-color="#A566FF"/>
<stop offset="1" stop-color="#15E8FF"/>
</linearGradient>
<linearGradient id="paint1_linear_806_217" x1="16.4074" y1="6.48242" x2="16.4074" y2="25.6261" gradientUnits="userSpaceOnUse">
<stop stop-color="#A566FF"/>
<stop offset="1" stop-color="#15E8FF"/>
</linearGradient>
</defs>
</svg>
