<svg width="12" height="12" viewBox="0 0 12 12" fill="none" xmlns="http://www.w3.org/2000/svg">
<g id="Warning">
<path id="Vector" d="M6 4.875V6.75" stroke="#FF5353" stroke-width="0.75" stroke-linecap="round" stroke-linejoin="round"/>
<path id="Vector_2" d="M5.35341 1.87512L1.22841 9.00012C1.1627 9.11394 1.12805 9.24303 1.12793 9.37446C1.12781 9.50589 1.16224 9.63504 1.22775 9.74898C1.29326 9.86291 1.38757 9.95763 1.50121 10.0236C1.61486 10.0897 1.74386 10.1247 1.87529 10.1251H10.1253C10.2567 10.1247 10.3857 10.0897 10.4994 10.0236C10.613 9.95763 10.7073 9.86291 10.7728 9.74898C10.8383 9.63504 10.8728 9.50589 10.8726 9.37446C10.8725 9.24303 10.8379 9.11394 10.7722 9.00012L6.64716 1.87512C6.58194 1.76115 6.48777 1.66644 6.37417 1.60056C6.26058 1.53469 6.1316 1.5 6.00029 1.5C5.86898 1.5 5.74 1.53469 5.6264 1.60056C5.51281 1.66644 5.41863 1.76115 5.35341 1.87512V1.87512Z" stroke="#FF5353" stroke-width="0.75" stroke-linecap="round" stroke-linejoin="round"/>
<path id="Vector_3" d="M6 9C6.31066 9 6.5625 8.74816 6.5625 8.4375C6.5625 8.12684 6.31066 7.875 6 7.875C5.68934 7.875 5.4375 8.12684 5.4375 8.4375C5.4375 8.74816 5.68934 9 6 9Z" fill="#FF5353"/>
</g>
</svg>
