<svg width="13" height="13" viewBox="0 0 13 13" fill="none" xmlns="http://www.w3.org/2000/svg">
<path d="M6.6001 5.17188V6.67188" stroke="#F484D5" stroke-width="0.75" stroke-linecap="round" stroke-linejoin="round"/>
<path d="M5.95449 2.17199L1.82949 9.29699C1.76377 9.41081 1.72912 9.5399 1.729 9.67133C1.72889 9.80276 1.76331 9.93191 1.82882 10.0459C1.89434 10.1598 1.98864 10.2545 2.10229 10.3205C2.21594 10.3865 2.34493 10.4215 2.47636 10.422H10.7264C10.8578 10.4215 10.9868 10.3865 11.1004 10.3205C11.2141 10.2545 11.3084 10.1598 11.3739 10.0459C11.4394 9.93191 11.4738 9.80276 11.4737 9.67133C11.4736 9.5399 11.439 9.41081 11.3732 9.29699L7.24824 2.17199C7.18302 2.05803 7.08884 1.96331 6.97525 1.89744C6.86165 1.83157 6.73267 1.79688 6.60136 1.79688C6.47005 1.79688 6.34107 1.83157 6.22748 1.89744C6.11388 1.96331 6.01971 2.05803 5.95449 2.17199V2.17199Z" stroke="#F484D5" stroke-width="0.75" stroke-linecap="round" stroke-linejoin="round"/>
<path d="M6.6001 8.79688C6.87624 8.79688 7.1001 8.57302 7.1001 8.29688C7.1001 8.02073 6.87624 7.79688 6.6001 7.79688C6.32396 7.79688 6.1001 8.02073 6.1001 8.29688C6.1001 8.57302 6.32396 8.79688 6.6001 8.79688Z" fill="#F484D5"/>
</svg>
