<svg width="28" height="28" viewBox="0 0 28 28" fill="none" xmlns="http://www.w3.org/2000/svg">
<g filter="url(#filter0_i_1087_2882)">
<circle cx="13.9964" cy="14.0003" r="12.973" fill="#2B282E"/>
</g>
<circle cx="13.9964" cy="14.0003" r="12.973" stroke="url(#paint0_linear_1087_2882)" stroke-width="0.540541"/>
<path d="M14 20C17.3137 20 20 17.3137 20 14C20 10.6863 17.3137 8 14 8C10.6863 8 8 10.6863 8 14C8 17.3137 10.6863 20 14 20Z" stroke="white" stroke-linecap="round" stroke-linejoin="round"/>
<path d="M8.34375 12H19.6562" stroke="white" stroke-linecap="round" stroke-linejoin="round"/>
<path d="M8.34375 16H19.6562" stroke="white" stroke-linecap="round" stroke-linejoin="round"/>
<path d="M14 19.8391C15.3807 19.8391 16.5 17.2255 16.5 14.0016C16.5 10.7776 15.3807 8.16406 14 8.16406C12.6193 8.16406 11.5 10.7776 11.5 14.0016C11.5 17.2255 12.6193 19.8391 14 19.8391Z" stroke="white" stroke-linecap="round" stroke-linejoin="round"/>
<defs>
<filter id="filter0_i_1087_2882" x="0.75" y="0.757812" width="26.4922" height="26.4844" filterUnits="userSpaceOnUse" color-interpolation-filters="sRGB">
<feFlood flood-opacity="0" result="BackgroundImageFix"/>
<feBlend mode="normal" in="SourceGraphic" in2="BackgroundImageFix" result="shape"/>
<feColorMatrix in="SourceAlpha" type="matrix" values="0 0 0 0 0 0 0 0 0 0 0 0 0 0 0 0 0 0 127 0" result="hardAlpha"/>
<feOffset/>
<feGaussianBlur stdDeviation="4.32432"/>
<feComposite in2="hardAlpha" operator="arithmetic" k2="-1" k3="1"/>
<feColorMatrix type="matrix" values="0 0 0 0 0 0 0 0 0 0 0 0 0 0 0 0 0 0 1 0"/>
<feBlend mode="normal" in2="shape" result="effect1_innerShadow_1087_2882"/>
</filter>
<linearGradient id="paint0_linear_1087_2882" x1="16.4491" y1="18.0066" x2="22.9901" y2="26.0193" gradientUnits="userSpaceOnUse">
<stop offset="0.0169549" stop-color="#A566FF"/>
<stop offset="1" stop-color="#15E8FF"/>
</linearGradient>
</defs>
</svg>
