<svg width="20" height="20" viewBox="0 0 20 20" fill="none" xmlns="http://www.w3.org/2000/svg">
<path fill-rule="evenodd" clip-rule="evenodd" d="M13.7843 3.71392C12.8459 3.7814 11.723 4.30124 10.5585 5.63579C10.4443 5.76667 10.2792 5.84195 10.1055 5.84234C9.93178 5.84274 9.76635 5.76823 9.65154 5.63788C8.02755 3.79397 6.47815 3.50257 5.33698 3.85156C4.15019 4.2145 3.22041 5.31883 2.95147 6.61605C2.88386 6.94217 2.56468 7.15174 2.23856 7.08413C1.91244 7.01652 1.70288 6.69734 1.77049 6.37122C2.11666 4.70146 3.32166 3.20665 4.98426 2.6982C6.55342 2.21832 8.3811 2.65594 10.1019 4.35811C11.2814 3.1789 12.5138 2.59609 13.6978 2.51094C15.0344 2.41482 16.2147 2.96054 17.0675 3.81936C18.7435 5.50719 19.2684 8.55778 17.1903 10.6568C17.1838 10.6633 17.1772 10.6697 17.1705 10.6759L10.5129 16.8149C10.2813 17.0284 9.92448 17.0277 9.6937 16.8134L5.79802 13.1951C5.55399 12.9685 5.5399 12.5869 5.76655 12.3429C5.99321 12.0988 6.37478 12.0847 6.61881 12.3114L10.1056 15.5499L16.3425 9.79884C17.8479 8.26757 17.5211 5.98785 16.2117 4.66919C15.5704 4.02341 14.7223 3.64647 13.7843 3.71392Z" fill="#64FFE3"/>
<path fill-rule="evenodd" clip-rule="evenodd" d="M7.12895 6.72773C7.33162 6.74035 7.51432 6.85411 7.61507 7.03042L9.5719 10.4549L10.8304 8.77692C10.9443 8.62507 11.123 8.5357 11.3128 8.5357H13.1219C13.455 8.5357 13.725 8.8057 13.725 9.13875C13.725 9.4718 13.455 9.7418 13.1219 9.7418H11.6143L9.9861 11.9128C9.86427 12.0752 9.66886 12.1654 9.46619 12.1528C9.26353 12.1402 9.08082 12.0264 8.98007 11.8501L7.02324 8.42567L5.76478 10.1036C5.65089 10.2555 5.47215 10.3448 5.28234 10.3448H2.26711C1.93406 10.3448 1.66406 10.0748 1.66406 9.7418C1.66406 9.40874 1.93406 9.13875 2.26711 9.13875H4.98082L6.60904 6.96778C6.73088 6.80534 6.92628 6.71511 7.12895 6.72773Z" fill="#64FFE3"/>
</svg>
