<svg width="21" height="21" viewBox="0 0 21 21" fill="none" xmlns="http://www.w3.org/2000/svg">
<path fill-rule="evenodd" clip-rule="evenodd" d="M14.1281 4.04596C13.1897 4.11344 12.0668 4.63328 10.9023 5.96784C10.7881 6.09872 10.623 6.17399 10.4493 6.17439C10.2756 6.17479 10.1101 6.10027 9.99533 5.96992C8.37133 4.12601 6.82192 3.8346 5.68075 4.1836C4.49395 4.54654 3.56416 5.65087 3.29522 6.9481C3.22761 7.27423 2.90843 7.48379 2.58231 7.41618C2.25619 7.34857 2.04663 7.02939 2.11424 6.70327C2.46041 5.0335 3.66542 3.53869 5.32803 3.03023C6.89719 2.55035 8.72488 2.98797 10.4457 4.69015C11.6252 3.51093 12.8576 2.92812 14.0416 2.84297C15.3782 2.74685 16.5585 3.29257 17.4113 4.1514C19.0873 5.83924 19.6122 8.88984 17.5341 10.9889C17.5277 10.9954 17.5211 11.0017 17.5143 11.0079L10.8567 17.147C10.6251 17.3605 10.2683 17.3598 10.0375 17.1455L6.14179 13.5272C5.89775 13.3005 5.88367 12.919 6.11032 12.6749C6.33698 12.4309 6.71855 12.4168 6.96258 12.6435L10.4494 15.882L16.6863 10.1309C18.1917 8.59963 17.8649 6.3199 16.5555 5.00123C15.9143 4.35545 15.0661 3.97851 14.1281 4.04596Z" fill="#64FFE3"/>
<path fill-rule="evenodd" clip-rule="evenodd" d="M7.46491 7.05586C7.66758 7.06847 7.85029 7.18224 7.95104 7.35854L9.90788 10.783L11.1663 9.10506C11.2802 8.95321 11.459 8.86384 11.6488 8.86384H13.4579C13.791 8.86384 14.061 9.13383 14.061 9.46689C14.061 9.79994 13.791 10.0699 13.4579 10.0699H11.9503L10.3221 12.2409C10.2002 12.4034 10.0048 12.4936 9.80217 12.481C9.5995 12.4683 9.41679 12.3546 9.31604 12.1783L7.3592 8.75381L6.10073 10.4318C5.98685 10.5836 5.80811 10.673 5.61829 10.673H2.60305C2.26999 10.673 2 10.403 2 10.0699C2 9.73688 2.26999 9.46689 2.60305 9.46689H5.31677L6.945 7.29591C7.06684 7.13346 7.26225 7.04324 7.46491 7.05586Z" fill="#64FFE3"/>
</svg>
