<svg width="21" height="21" viewBox="0 0 21 21" fill="none" xmlns="http://www.w3.org/2000/svg">
<path fill-rule="evenodd" clip-rule="evenodd" d="M14.1203 4.04987C13.1819 4.11735 12.059 4.63719 10.8944 5.97175C10.7802 6.10262 10.6152 6.1779 10.4415 6.1783C10.2678 6.1787 10.1023 6.10418 9.98752 5.97383C8.36352 4.12991 6.81411 3.83851 5.67294 4.1875C4.48614 4.55045 3.55635 5.65478 3.28741 6.95201C3.2198 7.27813 2.90062 7.4877 2.5745 7.42009C2.24838 7.35247 2.03882 7.03329 2.10643 6.70717C2.4526 5.0374 3.6576 3.54259 5.32021 3.03413C6.88938 2.55425 8.71707 2.99187 10.4379 4.69406C11.6174 3.51484 12.8497 2.93202 14.0338 2.84688C15.3704 2.75075 16.5507 3.29648 17.4035 4.1553C19.0795 5.84315 19.6044 8.89375 17.5263 10.9928C17.5198 10.9993 17.5133 11.0056 17.5065 11.0118L10.8489 17.1509C10.6173 17.3644 10.2605 17.3637 10.0297 17.1494L6.13397 13.5311C5.88994 13.3044 5.87585 12.9229 6.10251 12.6788C6.32917 12.4348 6.71074 12.4207 6.95477 12.6474L10.4415 15.8859L16.6785 10.1348C18.1839 8.60353 17.8571 6.3238 16.5477 5.00514C15.9064 4.35935 15.0583 3.98241 14.1203 4.04987Z" fill="#F9436F"/>
<path fill-rule="evenodd" clip-rule="evenodd" d="M7.46491 7.06367C7.66758 7.07629 7.85029 7.19005 7.95104 7.36636L9.90788 10.7908L11.1663 9.11287C11.2802 8.96102 11.459 8.87165 11.6488 8.87165H13.4579C13.791 8.87165 14.061 9.14164 14.061 9.4747C14.061 9.80775 13.791 10.0777 13.4579 10.0777H11.9503L10.3221 12.2487C10.2002 12.4112 10.0048 12.5014 9.80217 12.4888C9.5995 12.4762 9.41679 12.3624 9.31604 12.1861L7.3592 8.76162L6.10073 10.4396C5.98685 10.5914 5.80811 10.6808 5.61829 10.6808H2.60305C2.26999 10.6808 2 10.4108 2 10.0777C2 9.74469 2.26999 9.4747 2.60305 9.4747H5.31677L6.945 7.30372C7.06684 7.14128 7.26225 7.05105 7.46491 7.06367Z" fill="#F9436F"/>
</svg>
