<svg width="16" height="15" viewBox="0 0 16 15" fill="none" xmlns="http://www.w3.org/2000/svg">
<path d="M1.52768 10.1823C1.22213 9.87675 0.727818 9.87675 0.423872 10.1823C0.119926 10.4878 0.118327 10.982 0.423872 11.286C0.729418 11.5915 1.22373 11.5915 1.52768 11.286C1.83322 10.9804 1.83322 10.4862 1.52768 10.1823Z" fill="#D1D3D4"/>
<path d="M1.52568 11.2834C1.22013 11.5889 0.725821 11.5889 0.421875 11.2834L1.52568 10.1797C1.83122 10.4852 1.83122 10.9795 1.52568 11.2834Z" fill="white"/>
<path d="M0.975826 11.7093C0.438322 11.7093 0 11.271 0 10.7335C0 10.1961 0.438322 9.75781 0.975826 9.75781C1.51333 9.75781 1.95165 10.1961 1.95165 10.7335C1.95165 11.271 1.51333 11.7093 0.975826 11.7093ZM0.975826 10.1481C0.652684 10.1481 0.390331 10.4104 0.390331 10.7335C0.390331 11.0567 0.652684 11.319 0.975826 11.319C1.29897 11.319 1.56132 11.0567 1.56132 10.7335C1.56132 10.4104 1.29897 10.1481 0.975826 10.1481Z" fill="#A566FF"/>
<path d="M3.86361 0.424449C3.55807 0.118934 3.06376 0.118934 2.75981 0.424449C2.45586 0.729965 2.45426 1.22423 2.75981 1.52814C3.06536 1.83366 3.55967 1.83366 3.86361 1.52814C4.16916 1.22263 4.16916 0.728365 3.86361 0.424449Z" fill="#D1D3D4"/>
<path d="M3.86162 1.52557C3.55607 1.83109 3.06176 1.83109 2.75781 1.52557L3.86162 0.421875C4.16716 0.727391 4.16716 1.22165 3.86162 1.52557Z" fill="white"/>
<path d="M3.31176 1.95146C2.77426 1.95146 2.33594 1.51318 2.33594 0.97573C2.33594 0.438279 2.77426 0 3.31176 0C3.84927 0 4.28759 0.438279 4.28759 0.97573C4.28759 1.51318 3.84927 1.95146 3.31176 1.95146ZM3.31176 0.390293C2.98862 0.390293 2.72627 0.65262 2.72627 0.97573C2.72627 1.29884 2.98862 1.56117 3.31176 1.56117C3.63491 1.56117 3.89726 1.29884 3.89726 0.97573C3.89726 0.65262 3.63491 0.390293 3.31176 0.390293Z" fill="#A566FF"/>
<path d="M1.52768 3.15882C1.22213 2.85331 0.727818 2.85331 0.423872 3.15882C0.119926 3.46434 0.118327 3.9586 0.423872 4.26252C0.729418 4.56643 1.22373 4.56803 1.52768 4.26252C1.83322 3.957 1.83322 3.46274 1.52768 3.15882Z" fill="#158FFF"/>
<path d="M1.52568 4.25994C1.22013 4.56546 0.725821 4.56546 0.421875 4.25994L1.52568 3.15625C1.83122 3.46177 1.83122 3.95603 1.52568 4.25994Z" fill="#158FFF"/>
<path d="M0.975826 4.68584C0.438322 4.68584 0 4.24756 0 3.7101C0 3.17265 0.438322 2.73438 0.975826 2.73438C1.51333 2.73438 1.95165 3.17265 1.95165 3.7101C1.95165 4.24756 1.51333 4.68584 0.975826 4.68584ZM0.975826 3.12307C0.652684 3.12307 0.390331 3.38539 0.390331 3.70851C0.390331 4.03162 0.652684 4.29394 0.975826 4.29394C1.29897 4.29394 1.56132 4.03162 1.56132 3.70851C1.56132 3.38539 1.29897 3.12307 0.975826 3.12307Z" fill="#A566FF"/>
<path d="M3.86421 12.9166C3.55867 12.6111 3.06436 12.6111 2.76041 12.9166C2.45486 13.2222 2.45486 13.7164 2.76041 14.0203C3.06595 14.3242 3.56027 14.3258 3.86421 14.0203C4.16976 13.7148 4.16976 13.2206 3.86421 12.9166Z" fill="#158FFF"/>
<path d="M3.86162 14.0178C3.55607 14.3233 3.06176 14.3233 2.75781 14.0178L3.86162 12.9141C4.16716 13.2196 4.16716 13.7138 3.86162 14.0178Z" fill="#158FFF"/>
<path d="M3.31176 14.4436C2.77426 14.4436 2.33594 14.0054 2.33594 13.4679C2.33594 12.9305 2.77426 12.4922 3.31176 12.4922C3.84927 12.4922 4.28759 12.9305 4.28759 13.4679C4.28759 14.0054 3.84927 14.4436 3.31176 14.4436ZM3.31176 12.8825C2.98862 12.8825 2.72627 13.1448 2.72627 13.4679C2.72627 13.791 2.98862 14.0534 3.31176 14.0534C3.63491 14.0534 3.89726 13.791 3.89726 13.4679C3.89726 13.1448 3.63491 12.8825 3.31176 12.8825Z" fill="#A566FF"/>
<path d="M13.2392 0.424449C12.9337 0.118934 12.4394 0.118934 12.1354 0.424449C11.8299 0.729965 11.8299 1.22423 12.1354 1.52814C12.441 1.83206 12.9353 1.83366 13.2392 1.52814C13.5432 1.22263 13.5448 0.728365 13.2392 0.424449Z" fill="#D1D3D4"/>
<path d="M13.2366 1.52557C12.9311 1.83109 12.4368 1.83109 12.1328 1.52557L13.2366 0.421875C13.5422 0.727391 13.5422 1.22165 13.2366 1.52557Z" fill="white"/>
<path d="M12.6868 1.95146C12.1493 1.95146 11.7109 1.51318 11.7109 0.97573C11.7109 0.438279 12.1493 0 12.6868 0C13.2243 0 13.6626 0.438279 13.6626 0.97573C13.6626 1.51318 13.2243 1.95146 12.6868 1.95146ZM12.6868 0.390293C12.3636 0.390293 12.1013 0.65262 12.1013 0.97573C12.1013 1.29884 12.3636 1.56117 12.6868 1.56117C13.0099 1.56117 13.2723 1.29884 13.2723 0.97573C13.2723 0.65262 13.0099 0.390293 12.6868 0.390293Z" fill="#A566FF"/>
<path d="M13.2386 12.9166C12.9331 12.6111 12.4388 12.6111 12.1348 12.9166C11.8309 13.2222 11.8293 13.7164 12.1348 14.0203C12.4404 14.3258 12.9347 14.3258 13.2386 14.0203C13.5442 13.7148 13.5442 13.2206 13.2386 12.9166Z" fill="#158FFF"/>
<path d="M13.2366 14.0178C12.9311 14.3233 12.4368 14.3233 12.1328 14.0178L13.2366 12.9141C13.5422 13.2196 13.5422 13.7138 13.2366 14.0178Z" fill="#158FFF"/>
<path d="M12.6868 14.4436C12.1493 14.4436 11.7109 14.0054 11.7109 13.4679C11.7109 12.9305 12.1493 12.4922 12.6868 12.4922C13.2243 12.4922 13.6626 12.9305 13.6626 13.4679C13.6626 14.0054 13.2243 14.4436 12.6868 14.4436ZM12.6868 12.8825C12.3636 12.8825 12.1013 13.1448 12.1013 13.4679C12.1013 13.791 12.3636 14.0534 12.6868 14.0534C13.0099 14.0534 13.2723 13.791 13.2723 13.4679C13.2723 13.1448 13.0099 12.8825 12.6868 12.8825Z" fill="#A566FF"/>
<path d="M15.5673 10.1823C15.2618 9.87675 14.7675 9.87675 14.4635 10.1823C14.158 10.4878 14.158 10.982 14.4635 11.286C14.7691 11.5899 15.2634 11.5915 15.5673 11.286C15.8729 10.9804 15.8729 10.4862 15.5673 10.1823Z" fill="#D1D3D4"/>
<path d="M15.5647 11.2834C15.2592 11.5889 14.7649 11.5889 14.4609 11.2834L15.5647 10.1797C15.8703 10.4852 15.8703 10.9795 15.5647 11.2834Z" fill="white"/>
<path d="M15.0149 11.7093C14.4774 11.7093 14.0391 11.271 14.0391 10.7335C14.0391 10.1961 14.4774 9.75781 15.0149 9.75781C15.5524 9.75781 15.9907 10.1961 15.9907 10.7335C15.9907 11.271 15.5524 11.7093 15.0149 11.7093ZM15.0149 10.1481C14.6917 10.1481 14.4294 10.4104 14.4294 10.7335C14.4294 11.0567 14.6917 11.319 15.0149 11.319C15.338 11.319 15.6004 11.0567 15.6004 10.7335C15.6004 10.4104 15.338 10.1481 15.0149 10.1481Z" fill="#A566FF"/>
<path d="M15.5673 3.15882C15.2618 2.85331 14.7675 2.85331 14.4635 3.15882C14.158 3.46434 14.158 3.9586 14.4635 4.26252C14.7691 4.56803 15.2634 4.56803 15.5673 4.26252C15.8713 3.957 15.8729 3.46274 15.5673 3.15882Z" fill="#158FFF"/>
<path d="M15.5647 4.25994C15.2592 4.56546 14.7649 4.56546 14.4609 4.25994L15.5647 3.15625C15.8703 3.46177 15.8703 3.95603 15.5647 4.25994Z" fill="#158FFF"/>
<path d="M15.0149 4.68584C14.4774 4.68584 14.0391 4.24756 14.0391 3.7101C14.0391 3.17265 14.4774 2.73438 15.0149 2.73438C15.5524 2.73438 15.9907 3.17265 15.9907 3.7101C15.9907 4.24756 15.5524 4.68584 15.0149 4.68584ZM15.0149 3.12307C14.6917 3.12307 14.4294 3.38539 14.4294 3.70851C14.4294 4.03162 14.6917 4.29394 15.0149 4.29394C15.338 4.29394 15.6004 4.03162 15.6004 3.70851C15.6004 3.38539 15.338 3.12307 15.0149 3.12307Z" fill="#A566FF"/>
<path d="M7.60656 6.63956H6.63073V5.07839H5.45974V6.63956H3.50649V3.90592H1.75V3.51562H3.89682V6.24927H5.06941V4.6881H7.02106V6.24927H7.60656V6.63956Z" fill="#A566FF"/>
<path d="M3.89682 10.927H1.75V10.5367H3.50649V7.80469H5.45974V9.36586H6.63073V7.80469H7.60656V8.19498H7.02106V9.75615H5.06941V8.19498H3.89682V10.927Z" fill="#A566FF"/>
<path d="M12.4891 6.63956H10.5374V5.07839H9.36645V6.63956H8.39062V6.24927H8.97612V4.6881H10.9278V6.24927H12.0988V3.51562H14.2456V3.90592H12.4891V6.63956Z" fill="#A566FF"/>
<path d="M14.2456 10.927H12.0988V8.19498H10.9278V9.75615H8.97612V8.19498H8.39062V7.80469H9.36645V9.36586H10.5374V7.80469H12.4891V10.5367H14.2456V10.927Z" fill="#A566FF"/>
<path d="M7.80189 13.6625H4.09375V13.2722H7.41156V1.17154H4.09375V0.78125H7.80189V13.6625Z" fill="#A566FF"/>
<path d="M11.9035 13.6625H8.19531V0.78125H11.9035V1.17154H8.58564V13.2722H11.9035V13.6625Z" fill="#A566FF"/>
</svg>
